<?xml version="1.0" encoding="utf-8"?>
<!-- Generator: Adobe Illustrator 19.2.1, SVG Export Plug-In . SVG Version: 6.00 Build 0)  -->
<svg version="1.1" id="Layer_1" xmlns="http://www.w3.org/2000/svg" xmlns:xlink="http://www.w3.org/1999/xlink" x="0px" y="0px"
	 viewBox="0 0 355.6 43.4" style="enable-background:new 0 0 355.6 43.4;" xml:space="preserve">
<style type="text/css">
	.st0{fill-rule:evenodd;clip-rule:evenodd;fill:#8F642F;}
</style>
<path class="st0" d="M248.7,5.4c0,12.6,0,25.1,0,37.8c-1.5,0-2.8,0-4,0c-0.5-2-0.5-40.3,0.1-42.4c1.6,0,3.2,0,5.1,0
	c5.7,11.8,12,23.5,18.1,35.2c0.2,0,0.4-0.1,0.5-0.1c0-11.7,0-23.4,0-35.3c1.5,0,2.6,0,4.2,0c0.5,3.5,0,7,0.1,10.6
	c0.1,3.6,0.1,7.2,0.1,10.8c0,3.5,0,7-0.1,10.6c0,3.6,0,7.1,0,10.6c-1.5,0.7-1.8-0.2-2.2-0.9c-1.8-3.3-3.7-6.5-5.5-9.8
	c-4.8-8.3-9.7-16.7-14.6-25c-0.4-0.8-1-1.5-1.4-2.2C249,5.3,248.9,5.4,248.7,5.4z"/>
<path class="st0" d="M198.7,2.8c-4.2,4.1-8.5,8.1-12.9,12.4c-4.2-4.1-8.3-8.1-12.8-12.4c-0.8,2.5-0.1,4.7-0.2,6.8
	c-0.1,2.3-0.1,4.6-0.1,6.9c0,2.2,0,4.4,0.1,6.7c0.1,2.2,0.2,4.4,0.3,6.6c0.1,2.3,0.4,4.6,0.6,6.9c0.2,2.2,0.4,4.4,0.6,6.8
	c-1.1,0-2.1,0-3.2,0c0.3-14.1,0.6-28.1,1-42.4c1.7,0,3.3-0.2,4.9-0.1c0.6,0,1.2,0.7,1.6,1.1c2.7,2.5,5.3,5.1,7.9,7.7
	c0.5,0.5,1,0.9,1.7,1.5c2-1.9,4-3.7,5.9-5.5c1.1-1,2.3-1.9,3.1-3c1.7-2.2,3.8-2.1,6.2-1.7c0,14.1,0,28.2,0,42.4c-1.6,0-2.9,0-4.3,0
	c0-13.5,0-26.9,0-40.3C199,2.9,198.9,2.8,198.7,2.8z"/>
<path class="st0" d="M41.7,1.6c0,13.8,0,27.5,0,41.5c-1.3,0.1-2.5,0.2-4.1,0.3c-0.4-7.2-0.2-14.3-0.1-21.3c0.1-7-0.3-14,0.1-21.1
	c5.6-0.4,10.9-0.4,15.5,3.1c4.4,3.3,5.3,8.1,2.4,12.7c-1.5,2.4-3.4,4.3-5.9,5.7c-0.5,0.3-0.9,0.5-1.4,0.9c0.2,0.3,0.2,0.5,0.4,0.6
	c4.6,2.4,6.4,6.5,7.3,11.3c0.5,2.6,1.1,5.2,1.8,8c-1.1,0-2.4,0.1-3.7-0.1c-0.4-0.1-1-1-1.1-1.5c-0.4-2.5-0.7-5-1.1-7.5
	c-0.2-1.7-0.4-3.3-0.8-5c-0.2-0.9-0.7-1.9-1.3-2.7c-0.6-0.9-1.4-1.6-2.2-2.3c-1.1-0.9-2,0.4-3,0.4c-0.2,0-0.4,0-0.8-0.3
	c0.4-0.2,0.9-0.5,1.3-0.7c5.4-2.5,8-7.1,7.5-12.9C52,5.6,48.2,1.4,41.7,1.6z"/>
<path class="st0" d="M63.2,21.3c0.2-5.7,2.2-10.6,5.6-15c1.5-1.9,3.2-3.5,5.3-4.7c4.1-2.2,8.1-2.1,12,0.4c4.6,2.9,7.5,7.2,9,12.3
	c2.1,6.9,1.2,13.5-2.2,19.8c-2.2,4.1-5.3,7.3-9.8,8.8c-3.4,1.1-6.6,0.6-9.5-1.2c-6-3.8-9.1-9.5-10.1-16.4
	C63.3,23.9,63.3,22.6,63.2,21.3z M91.6,20.5c-0.2-2-0.4-4.6-0.9-7.3c-0.6-3.8-2-7.2-4.8-9.9c-3.8-3.7-8.8-3.6-12.4,0.2
	c-2.5,2.6-3.8,5.9-4.5,9.4c-1.1,5.5-1.1,11.1,0,16.6c0.7,3.9,2,7.5,4.9,10.4c3.5,3.5,8.1,3.6,11.6,0.2c1.1-1,2-2.3,2.8-3.6
	C90.9,31.7,91.3,26.5,91.6,20.5z"/>
<path class="st0" d="M132.6,21.3c0.2-5.7,2.2-10.6,5.6-15c1.5-1.9,3.2-3.5,5.3-4.7c4.1-2.2,8.1-2.1,12,0.4c4.6,2.9,7.5,7.2,9,12.3
	c2.1,6.9,1.2,13.5-2.2,19.8c-2.2,4.1-5.3,7.3-9.8,8.8c-3.4,1.1-6.6,0.6-9.5-1.2c-6-3.8-9.1-9.5-10.1-16.4
	C132.7,23.9,132.7,22.6,132.6,21.3z M161,20.5c-0.2-2-0.4-4.6-0.9-7.3c-0.6-3.8-2-7.2-4.8-9.9c-3.8-3.7-8.8-3.6-12.4,0.2
	c-2.5,2.6-3.8,5.9-4.5,9.4c-1.1,5.5-1.1,11.1,0,16.6c0.7,3.9,2,7.5,4.9,10.4c3.5,3.5,8.1,3.6,11.6,0.2c1.1-1,2-2.3,2.8-3.6
	C160.3,31.7,160.7,26.5,161,20.5z"/>
<path class="st0" d="M0.6,43.4C0.4,29.1,0.2,15.2,0,1.2c8.4,0,16.6,0,25,0c0,1.1,0,2.2,0,3.6c-3.4-0.6-6.8-1.3-10.1-1.8
	C11.6,2.6,8.2,2.3,5,1.9C4.3,3.7,4.2,6.1,4.7,9.2C12.3,9,20,8.8,27.8,7.9c0,1,0,1.9,0,3c-7.7-0.6-15.4-0.8-23.3-0.8
	C4.3,21.1,4.9,31.8,4.9,42.7c8-0.4,15.8-1.3,23.6-2.9c0.1,0.4,0.2,0.7,0.2,1c0,0.8,0,1.7,0,2.6C19.3,43.4,10.1,43.4,0.6,43.4z"/>
<path class="st0" d="M218.7,2.5c1.3-0.5,2.4-1,3.8-1.6c5.5,14.1,10.7,28.1,16.1,42.3c-0.5,0.1-0.8,0.2-1.1,0.1
	c-1.1,0-2.3-0.1-3.6-0.2c-0.5-1.5-1.1-2.9-1.6-4.3c-1.6-4.4-3.3-8.7-4.8-13.1c-0.4-1.2-1.1-1.6-2.4-1.6c-1.9,0.1-3.8,0-5.8,0
	c-1.8,6.4-3.5,12.6-5.2,19c-1,0-2.3,0-3.8,0c0.4-1,0.7-1.9,1.1-2.7c2.9-7.5,5.9-14.9,8.7-22.4c0.8-2.1,1.9-4.3,1.9-6.5
	c-0.1-2.2-1.4-4.3-2.2-6.4C219.5,4.4,219.1,3.6,218.7,2.5z M219.6,23c2.4,0,4.5,0,6.8,0c-1.2-3.1-2.3-5.8-3.3-8.5
	c-0.2,0-0.3,0-0.5,0C221.3,17.1,220.9,20.1,219.6,23z"/>
<path class="st0" d="M303.3,2.5c1.3-0.5,2.4-1,3.8-1.6c5.5,14.1,10.7,28.1,16.1,42.3c-0.5,0.1-0.8,0.2-1.1,0.1
	c-1.1,0-2.3-0.1-3.6-0.2c-0.5-1.5-1.1-2.9-1.6-4.3c-1.6-4.4-3.3-8.7-4.8-13.1c-0.4-1.2-1.1-1.6-2.4-1.6c-1.9,0.1-3.8,0-5.8,0
	c-1.8,6.4-3.5,12.6-5.2,19c-1,0-2.3,0-3.8,0c0.4-1,0.7-1.9,1.1-2.7c2.9-7.5,5.9-14.9,8.7-22.4c0.8-2.1,1.9-4.3,1.9-6.5
	c-0.1-2.2-1.4-4.3-2.2-6.4C304,4.4,303.7,3.6,303.3,2.5z M304.2,23c2.4,0,4.5,0,6.8,0c-1.2-3.1-2.3-5.8-3.3-8.5c-0.2,0-0.3,0-0.5,0
	C305.9,17.1,305.5,20.1,304.2,23z"/>
<path class="st0" d="M97.5,4.4c0-1.2,0-2.1,0-3.3c11,0,21.9,0,32.8,0c0,1.1,0,2,0,2.9c-4.7-0.9-9.3-1.8-14.2-2.7c0,14.2,0,28,0,42
	c-1.6,0-2.8,0-4.3,0c-0.1-0.5-0.3-1.1-0.3-1.7c0.1-9.3,0.2-18.7,0.3-28c0-3.5,0-7,0-10.6c0-0.4-0.1-0.9-0.2-1.5
	C106.8,1.8,102.2,3.1,97.5,4.4z"/>
<path class="st0" d="M355.6,38.1c0,1.2,0,2.4,0,3.7c-0.4,0.2-0.8,0.5-1.2,0.6c-8.1,2.3-15.1,0.3-21.2-5.3c-8.5-8-7.6-19.8-1.8-27.6
	c4.7-6.3,11.1-9.4,19.1-8.8c1.4,0.1,2.9,0.2,4.4,0.3c0.1,1.5,0.2,2.9,0.4,4.5c-0.5-0.3-0.8-0.4-1-0.6c-4.1-4.1-10.1-4.4-14.8-0.9
	c-3.6,2.7-5.4,6.6-6.5,10.8c-1.6,6-1.1,11.9,1.1,17.6c1.8,4.7,4.9,8.3,10.1,9.4C348.6,42.8,352.6,42.3,355.6,38.1z"/>
<path class="st0" d="M282.4,1.5c1.6,0,2.8,0,3.9,0c0.7,1.8,1.3,37,0.7,41.9c-1.3,0-2.6,0-4.1,0C282.8,29.4,282.6,15.6,282.4,1.5z"/>
</svg>
