<svg id="Layer_2" data-name="Layer 2" xmlns="http://www.w3.org/2000/svg" viewBox="0 0 425.71 33.56"><defs><style>.cls-1{fill:#8f642f;fill-rule:evenodd;}</style></defs><title>interstellar_title</title><path class="cls-1" d="M407.25,1.44V33.36h-3.18V0.84a59.84,59.84,0,0,1,8.23.13,19.48,19.48,0,0,1,7,2c4.34,2.24,7.05,7,6.31,11.38a12.37,12.37,0,0,1-7.27,9.47c-1.1.53-2.28,0.88-3.6,1.39,0.44,0.35.76,0.57,1,.85a17.71,17.71,0,0,1,2.31,2.43c1.15,1.7,2,3.6,3.88,4.84a20.32,20.32,0,0,1-5.28.13,1.48,1.48,0,0,1-.91-0.92,32.69,32.69,0,0,1-1-3.93c-0.47-2.45-1.33-3.24-3.81-3.29-0.7,0-1.4,0-2.23,0,0.43-.9,1.11-0.61,1.63-0.65a13.1,13.1,0,0,0,7.55-2.75,10.78,10.78,0,0,0,3.84-11.15,10.6,10.6,0,0,0-7.3-8.26A18.31,18.31,0,0,0,407.25,1.44Z"/><path class="cls-1" d="M293.88,33.56c-0.16-11-.32-21.78-0.48-32.65h19.38V3.73c-2.67-.47-5.24-1-7.84-1.37s-5.16-.61-7.7-0.9A11.75,11.75,0,0,0,297,7.09c5.91-.11,11.85-0.29,17.92-1V8.44c-6-.49-11.93-0.59-18-0.58-0.21,8.44.28,16.7,0.26,25.17a119.64,119.64,0,0,0,18.24-2.24,4.36,4.36,0,0,1,.17.76c0,0.64,0,1.28,0,2h-21.7Z"/><path class="cls-1" d="M176.2,33.56c-0.16-11-.33-21.78-0.49-32.65h19.38V3.73c-2.67-.47-5.24-1-7.84-1.37s-5.16-.61-7.7-0.9a11.8,11.8,0,0,0-.22,5.63c5.91-.11,11.85-0.29,17.92-1V8.44c-6-.49-11.93-0.59-18-0.58-0.21,8.44.28,16.7,0.26,25.17a119.64,119.64,0,0,0,18.24-2.24,4.37,4.37,0,0,1,.17.76c0,0.64,0,1.28,0,2H176.2Z"/><path class="cls-1" d="M372.4,1.94l2.94-1.23c4.3,10.88,8.3,21.77,12.47,32.73a6.79,6.79,0,0,1-.85.11c-0.88,0-1.76-.08-2.76-0.12-0.42-1.15-.82-2.25-1.22-3.35-1.25-3.38-2.54-6.76-3.74-10.16a1.57,1.57,0,0,0-1.84-1.21c-1.46.09-2.93,0-4.47,0l-4,14.68h-2.95l0.81-2.08c2.26-5.78,4.54-11.55,6.76-17.35,0.62-1.63,1.5-3.35,1.45-5s-1.11-3.33-1.74-5C373,3.39,372.73,2.79,372.4,1.94Zm0.7,15.85h5.29l-2.58-6.57h-0.4C374.37,13.23,374.09,15.51,373.09,17.79Z"/><path class="cls-1" d="M232.36,1.05c0,0.41.09,0.7,0.09,1,0,0.65,0,1.3,0,2.34l-1.51-1.22A9.85,9.85,0,0,0,224.09.69a6.84,6.84,0,0,0-2.71.69,3.33,3.33,0,0,0-.79,5.53,25.17,25.17,0,0,0,3.34,2.63c2.75,2,5.67,3.68,8,6.13a11.85,11.85,0,0,1,3.25,5.62A10,10,0,0,1,227.65,33a21.37,21.37,0,0,1-10.38-.21c-1-.26-2-0.59-3.09-0.9V27.58c1.24,1.08,2.28,2.12,3.46,3a11,11,0,0,0,9.26,1.93A7.8,7.8,0,0,0,231,19.69a38.75,38.75,0,0,0-7.43-6c-1.36-1-2.76-1.86-4-2.92-2.48-2.09-3-4.91-1.55-7.47A6.13,6.13,0,0,1,222,.38a18.92,18.92,0,0,1,8.1.14C230.88,0.67,231.62.87,232.36,1.05Z"/><path class="cls-1" d="M251.74,3.41V0.86h25.37V3.14l-11-2.1V33.56h-3.34a7.22,7.22,0,0,1-.2-1.28c0.05-7.23.13-14.45,0.2-21.68,0-2.72,0-5.45,0-8.17a10.37,10.37,0,0,0-.13-1.12A43.12,43.12,0,0,0,251.74,3.41Z"/><path class="cls-1" d="M349.64,30.69v2.86H332.12c-0.3-10.8-.28-21.5-0.25-32.44l3.07-.23c0.14,10.75.27,21.27,0.41,32A77.87,77.87,0,0,0,349.64,30.69Z"/><path class="cls-1" d="M22.84,4.29v29H19.52V0.82h4.13c4.54,9.06,9.06,18.13,14.11,26.91l0.39-.11V0.79h3.19V33.44c-0.93.37-1.23-.23-1.56-0.8-1.8-3.13-3.6-6.26-5.42-9.37Q29,14.14,23.67,5c-0.16-.28-0.36-0.54-0.53-0.82Z"/><path class="cls-1" d="M141,33.46h-2.81c-0.37-1.19-.58-30-0.26-32.46a0.69,0.69,0,0,1,.26-0.21c4.57-.26,9.12-0.32,13.47,1.43A12.39,12.39,0,0,1,158,7.6c3.31,5.83.4,12.1-3.79,14.86a54.7,54.7,0,0,1-5.39,2.77,0.16,0.16,0,0,0,0,.16,15.16,15.16,0,0,1,4.16,5,19.27,19.27,0,0,0,2.63,3,5.5,5.5,0,0,1-1.06.21c-0.89,0-1.78,0-2.66,0-2.15,0-2.34-.16-2.91-2.25-0.29-1.08-.42-2.21-0.67-3.3-0.43-1.91-1.21-2.56-3.19-2.67-0.84,0-1.68,0-2.53,0l0-.5c0.54-.06,1.07-0.14,1.61-0.19a13.57,13.57,0,0,0,7.92-3.17c4.16-3.58,4.49-10,2-14.15a11,11,0,0,0-6.71-5.18,23.51,23.51,0,0,0-6.36-.91c-0.26,5.43,0,10.79-.11,16.14S141,28,141,33.46Z"/><path class="cls-1" d="M99.75,33.56c-0.16-11-.32-21.78-0.48-32.65h19.38V3.73c-2.67-.47-5.24-1-7.84-1.37s-5.16-.61-7.7-0.9a11.77,11.77,0,0,0-.22,5.63c5.91-.11,11.85-0.29,17.92-1V8.44c-6-.49-11.93-0.59-18-0.58-0.21,8.44.28,16.7,0.26,25.17a119.66,119.66,0,0,0,18.24-2.24,5,5,0,0,1,.17.76c0,0.64,0,1.28,0,2H99.75Z"/><path class="cls-1" d="M57.62,3.41V0.86H83V3.14L72,1V33.56H68.64a7.4,7.4,0,0,1-.2-1.28c0.06-7.23.13-14.45,0.2-21.68,0-2.72,0-5.45,0-8.17a9.5,9.5,0,0,0-.13-1.12A43.07,43.07,0,0,0,57.62,3.41Z"/><path class="cls-1" d="M3.24,33.56H0V1H3.24v32.6Z"/></svg>