<?xml version="1.0" encoding="utf-8"?>
<!-- Generator: Adobe Illustrator 19.2.1, SVG Export Plug-In . SVG Version: 6.00 Build 0)  -->
<svg version="1.1" id="Layer_1" xmlns="http://www.w3.org/2000/svg" xmlns:xlink="http://www.w3.org/1999/xlink" x="0px" y="0px"
	 viewBox="0 0 513.8 43.4" style="enable-background:new 0 0 513.8 43.4;" xml:space="preserve">
<style type="text/css">
	.st0{fill-rule:evenodd;clip-rule:evenodd;fill:#8F642F;}
</style>
<path class="st0" d="M350.6,5.4c0,12.6,0,25.1,0,37.8c-1.5,0-2.8,0-4,0c-0.5-2-0.5-40.3,0.1-42.4c1.6,0,3.2,0,5.1,0
	c5.7,11.8,12,23.5,18.1,35.2c0.2,0,0.4-0.1,0.5-0.1c0-11.7,0-23.4,0-35.3c1.5,0,2.6,0,4.2,0c0.5,3.5,0,7,0.1,10.6
	c0.1,3.6,0.1,7.2,0.1,10.8c0,3.5,0,7-0.1,10.6c0,3.6,0,7.1,0,10.6c-1.5,0.7-1.8-0.2-2.2-0.9c-1.8-3.3-3.7-6.5-5.5-9.8
	c-4.8-8.3-9.7-16.7-14.6-25c-0.4-0.8-1-1.5-1.4-2.2C350.9,5.3,350.7,5.3,350.6,5.4z"/>
<path class="st0" d="M462.8,1.6c0,13.8,0,27.5,0,41.5c-1.3,0.1-2.5,0.2-4.1,0.3c-0.4-7.2-0.2-14.3-0.1-21.3c0.1-7-0.3-14,0.1-21.1
	c5.6-0.4,10.9-0.4,15.5,3.1c4.4,3.3,5.3,8.1,2.4,12.7c-1.5,2.4-3.4,4.3-5.9,5.7c-0.5,0.3-0.9,0.5-1.4,0.9c0.2,0.3,0.2,0.5,0.4,0.6
	c4.6,2.4,6.4,6.6,7.3,11.3c0.5,2.6,1.1,5.2,1.8,8c-1.1,0-2.4,0.1-3.7-0.1c-0.4-0.1-1-1-1.1-1.5c-0.4-2.5-0.7-5-1.1-7.5
	c-0.2-1.7-0.4-3.3-0.8-5c-0.2-0.9-0.7-1.9-1.3-2.7c-0.6-0.9-1.4-1.6-2.2-2.3c-1.1-0.9-2,0.4-3,0.4c-0.2,0-0.4,0-0.8-0.3
	c0.4-0.2,0.9-0.5,1.3-0.7c5.4-2.5,8-7.1,7.5-12.9C473.1,5.6,469.3,1.4,462.8,1.6z"/>
<path class="st0" d="M252.3,43.4c-0.2-14.2-0.4-28.1-0.6-42.2c8.4,0,16.6,0,25,0c0,1.1,0,2.2,0,3.6c-3.4-0.6-6.8-1.3-10.1-1.8
	c-3.3-0.5-6.7-0.8-9.9-1.2c-0.7,1.8-0.7,4.2-0.3,7.3c7.6-0.1,15.3-0.4,23.2-1.3c0,1,0,1.9,0,3c-7.7-0.6-15.4-0.8-23.3-0.8
	c-0.3,10.9,0.4,21.6,0.3,32.5c8-0.4,15.8-1.3,23.6-2.9c0.1,0.4,0.2,0.7,0.2,1c0,0.8,0,1.7,0,2.6C270.9,43.4,261.7,43.4,252.3,43.4z"
	/>
<path class="st0" d="M383.3,43.4c-0.2-14.2-0.4-28.1-0.6-42.2c8.4,0,16.6,0,25,0c0,1.1,0,2.2,0,3.6c-3.4-0.6-6.8-1.3-10.1-1.8
	c-3.3-0.5-6.7-0.8-9.9-1.2c-0.7,1.8-0.7,4.2-0.3,7.3c7.6-0.1,15.3-0.4,23.2-1.3c0,1,0,1.9,0,3c-7.7-0.6-15.4-0.8-23.3-0.8
	c-0.3,10.9,0.4,21.6,0.3,32.5c8-0.4,15.8-1.3,23.6-2.9c0.1,0.4,0.2,0.7,0.2,1c0,0.8,0,1.7,0,2.6C401.9,43.4,392.7,43.4,383.3,43.4z"
	/>
<path class="st0" d="M447.3,1.4c-0.1,1.2-0.1,2.3-0.2,3.8c-0.5-0.4-0.9-0.6-1.1-0.9c-1.8-2.1-4.1-2.9-6.7-2.9
	c-6,0.1-10.5,3-12.9,8.4c-3.5,8-3.5,16.3,0,24.3c2.6,5.9,7.6,8.3,13.9,8.3c0.7,0,1.4-0.1,2.1-0.1c0.1,0,0.3-0.1,0.6-0.3
	c0-9.7,0-19.5,0-29.5c1.5,0,2.7,0,4.3,0c0,9.9,0,19.7,0,29.6c-7,2.9-16.6,1.3-22.9-5.7c-6.2-7-6.4-17.5-1.6-25.5
	C428.1,1.8,437.6-1,447.3,1.4z"/>
<path class="st0" d="M38.9,2.5c1.3-0.5,2.4-1,3.8-1.6C48.3,15,53.4,29,58.8,43.2c-0.5,0.1-0.8,0.2-1.1,0.1c-1.1,0-2.3-0.1-3.6-0.2
	c-0.5-1.5-1.1-2.9-1.6-4.3c-1.6-4.4-3.3-8.7-4.8-13.1c-0.4-1.2-1.1-1.6-2.4-1.6c-1.9,0.1-3.8,0-5.8,0c-1.8,6.4-3.5,12.6-5.2,19
	c-1,0-2.3,0-3.8,0c0.4-1,0.7-1.9,1.1-2.7c2.9-7.5,5.9-14.9,8.7-22.4c0.8-2.1,1.9-4.3,1.9-6.5c-0.1-2.2-1.4-4.3-2.2-6.4
	C39.7,4.4,39.3,3.6,38.9,2.5z M39.8,23c2.4,0,4.5,0,6.8,0c-1.2-3.1-2.3-5.8-3.3-8.5c-0.2,0-0.3,0-0.5,0C41.5,17.1,41.1,20,39.8,23z"
	/>
<path class="st0" d="M493.9,2.5c1.3-0.5,2.4-1,3.8-1.6c5.5,14.1,10.7,28.1,16.1,42.3c-0.5,0.1-0.8,0.2-1.1,0.1
	c-1.1,0-2.3-0.1-3.6-0.2c-0.5-1.5-1.1-2.9-1.6-4.3c-1.6-4.4-3.3-8.7-4.8-13.1c-0.4-1.2-1.1-1.6-2.4-1.6c-1.9,0.1-3.8,0-5.8,0
	c-1.8,6.4-3.5,12.6-5.2,19c-1,0-2.3,0-3.8,0c0.4-1,0.7-1.9,1.1-2.7c2.9-7.5,5.9-14.9,8.7-22.4c0.8-2.1,1.9-4.3,1.9-6.5
	c-0.1-2.2-1.4-4.3-2.2-6.4C494.7,4.4,494.3,3.6,493.9,2.5z M494.8,23c2.4,0,4.5,0,6.8,0c-1.2-3.1-2.3-5.8-3.3-8.5
	c-0.2,0-0.3,0-0.5,0C496.5,17.1,496.1,20,494.8,23z"/>
<path class="st0" d="M133.9,2.5c1.3-0.5,2.4-1,3.8-1.6c5.5,14.1,10.7,28.1,16.1,42.3c-0.5,0.1-0.8,0.2-1.1,0.1
	c-1.1,0-2.3-0.1-3.6-0.2c-0.5-1.5-1.1-2.9-1.6-4.3c-1.6-4.4-3.3-8.7-4.8-13.1c-0.4-1.2-1.1-1.6-2.4-1.6c-1.9,0.1-3.8,0-5.8,0
	c-1.8,6.4-3.5,12.6-5.2,19c-1,0-2.3,0-3.8,0c0.4-1,0.7-1.9,1.1-2.7c2.9-7.5,5.9-14.9,8.7-22.4c0.8-2.1,1.9-4.3,1.9-6.5
	c-0.1-2.2-1.4-4.3-2.2-6.4C134.7,4.4,134.3,3.6,133.9,2.5z M134.8,23c2.4,0,4.5,0,6.8,0c-1.2-3.1-2.3-5.8-3.3-8.5
	c-0.2,0-0.3,0-0.5,0C136.5,17.1,136.1,20,134.8,23z"/>
<path class="st0" d="M202.9,2.5c1.3-0.5,2.4-1,3.8-1.6c5.5,14.1,10.7,28.1,16.1,42.3c-0.5,0.1-0.8,0.2-1.1,0.1
	c-1.1,0-2.3-0.1-3.6-0.2c-0.5-1.5-1.1-2.9-1.6-4.3c-1.6-4.4-3.3-8.7-4.8-13.1c-0.4-1.2-1.1-1.6-2.4-1.6c-1.9,0.1-3.8,0-5.8,0
	c-1.8,6.4-3.5,12.6-5.2,19c-1,0-2.3,0-3.8,0c0.4-1,0.7-1.9,1.1-2.7c2.9-7.5,5.9-14.9,8.7-22.4c0.8-2.1,1.9-4.3,1.9-6.5
	c-0.1-2.2-1.4-4.3-2.2-6.4C203.7,4.4,203.3,3.6,202.9,2.5z M203.8,23c2.4,0,4.5,0,6.8,0c-1.2-3.1-2.3-5.8-3.3-8.5
	c-0.2,0-0.3,0-0.5,0C205.5,17.1,205.1,20,203.8,23z"/>
<path class="st0" d="M184.5,1.4c0.1,0.5,0.1,0.9,0.1,1.3c0,0.8,0,1.7,0,3c-0.8-0.7-1.4-1.1-2-1.6c-2.6-2.1-5.5-3.4-8.9-3.2
	c-1.2,0.1-2.5,0.3-3.5,0.9c-2.8,1.5-3.3,4.8-1,7.1c1.3,1.3,2.8,2.3,4.3,3.4c3.6,2.5,7.3,4.8,10.4,7.9c2,2.1,3.5,4.4,4.2,7.3
	c1.5,6.7-2.8,13.4-9.8,15.1c-4.5,1.1-9,0.8-13.4-0.3c-1.3-0.3-2.6-0.8-4-1.2c0-1.9,0-3.7,0-5.6c1.6,1.4,2.9,2.7,4.5,3.8
	c3.6,2.6,7.6,3.5,12,2.5c7.8-1.8,10-11,5.2-16.5c-2.7-3.2-6.2-5.4-9.6-7.8c-1.8-1.2-3.6-2.4-5.2-3.8c-3.2-2.7-3.9-6.3-2-9.6
	c1.2-2,3-3.2,5.3-3.7c3.5-0.8,7-0.5,10.5,0.2C182.5,0.9,183.5,1.1,184.5,1.4z"/>
<path class="st0" d="M312.5,1.4c0.1,0.5,0.1,0.9,0.1,1.3c0,0.8,0,1.7,0,3c-0.8-0.7-1.4-1.1-2-1.6c-2.6-2.1-5.5-3.4-8.9-3.2
	c-1.2,0.1-2.5,0.3-3.5,0.9c-2.8,1.5-3.3,4.8-1,7.1c1.3,1.3,2.8,2.3,4.3,3.4c3.6,2.5,7.3,4.8,10.4,7.9c2,2.1,3.5,4.4,4.2,7.3
	c1.5,6.7-2.8,13.4-9.8,15.1c-4.5,1.1-9,0.8-13.4-0.3c-1.3-0.3-2.6-0.8-4-1.2c0-1.9,0-3.7,0-5.6c1.6,1.4,2.9,2.7,4.5,3.8
	c3.6,2.6,7.6,3.5,12,2.5c7.8-1.8,10-11,5.2-16.5c-2.7-3.2-6.2-5.4-9.6-7.8c-1.8-1.2-3.6-2.4-5.2-3.8c-3.2-2.7-3.9-6.3-2-9.6
	c1.2-2,3-3.2,5.3-3.7c3.5-0.8,7-0.5,10.5,0.2C310.5,0.9,311.5,1.1,312.5,1.4z"/>
<path class="st0" d="M23,39.7c0,1.4,0,2.5,0,3.7c-7.6,0-15,0-22.6,0C0,29.4,0,15.6,0,1.4c1.3-0.1,2.5-0.2,4-0.3
	C4.2,15,4.3,28.6,4.5,42.5C10.8,42,16.8,41.3,23,39.7z"/>
<path class="st0" d="M117,38.1c0,1.2,0,2.4,0,3.7c-0.4,0.2-0.8,0.5-1.2,0.6c-8.1,2.3-15.1,0.3-21.2-5.3c-8.5-8-7.6-19.8-1.8-27.6
	c4.7-6.3,11.1-9.4,19.1-8.8c1.4,0.1,2.9,0.2,4.4,0.3c0.1,1.5,0.2,2.9,0.4,4.5c-0.5-0.3-0.8-0.4-1-0.6c-4.1-4.1-10.1-4.4-14.8-0.9
	c-3.6,2.7-5.4,6.6-6.5,10.8c-1.6,6-1.1,11.9,1.1,17.6c1.8,4.7,4.9,8.3,10.1,9.4C110.1,42.8,114,42.2,117,38.1z"/>
</svg>
