<?xml version="1.0" encoding="utf-8"?>
<!-- Generator: Adobe Illustrator 19.2.1, SVG Export Plug-In . SVG Version: 6.00 Build 0)  -->
<svg version="1.1" id="Layer_1" xmlns="http://www.w3.org/2000/svg" xmlns:xlink="http://www.w3.org/1999/xlink" x="0px" y="0px"
	 viewBox="0 0 250.6 43.4" style="enable-background:new 0 0 250.6 43.4;" xml:space="preserve">
<style type="text/css">
	.st0{fill-rule:evenodd;clip-rule:evenodd;fill:#8F642F;}
</style>
<path class="st0" d="M222.5,0.9c1.2,0,2.4,0,3.8,0c0.1,0.6,0.2,1.2,0.2,1.8c0,8.6,0,17.3-0.1,25.9c0,3.3,1.1,6.1,3.1,8.7
	c1.6,2,3.6,3.5,6.1,4.3c3.3,1,6.8,1,10.5,1c0.2-13.9,0.1-27.7,0.2-41.7c1.4,0,2.6,0,4,0c0.1,0.5,0.3,1.1,0.2,1.7
	c-0.1,4.5-0.2,9-0.2,13.5c0,7.5,0,15,0,22.5c0,1.4,0,2.9,0,4.6c-0.9,0.1-1.6,0.2-2.4,0.2c-3.4,0-6.9,0.1-10.3,0
	c-2.4-0.1-4.8-0.3-7-1c-4.6-1.5-7.6-4.6-8.2-9.5c-0.4-3.2-0.4-6.4-0.4-9.6c0-6.9,0.2-13.9,0.3-20.8C222.3,1.9,222.4,1.4,222.5,0.9z"
	/>
<path class="st0" d="M100.5,2.7c-4.2,4.1-8.5,8.1-12.9,12.4C83.4,11,79.3,7,74.9,2.7c-0.8,2.5-0.1,4.7-0.2,6.8
	c-0.1,2.3-0.1,4.6-0.1,6.9c0,2.2,0,4.4,0.1,6.7c0.1,2.2,0.2,4.4,0.3,6.6c0.1,2.3,0.4,4.6,0.6,6.9c0.2,2.2,0.4,4.4,0.6,6.8
	c-1.1,0-2.1,0-3.2,0c0.3-14.1,0.6-28.1,1-42.4c1.7,0,3.3-0.2,4.9-0.1c0.6,0,1.2,0.7,1.6,1.1c2.7,2.5,5.3,5.1,7.9,7.7
	c0.5,0.5,1,0.9,1.7,1.5c2-1.9,4-3.7,5.9-5.5c1.1-1,2.3-1.9,3.1-3c1.7-2.2,3.8-2.1,6.2-1.7c0,14.1,0,28.2,0,42.4c-1.6,0-2.9,0-4.3,0
	c0-13.5,0-26.9,0-40.3C100.8,2.9,100.6,2.8,100.5,2.7z"/>
<path class="st0" d="M188.8,43.4c-1.5,0-2.7,0-4.1,0c-0.1-13.9-0.3-27.8-0.4-41.9c1.4-0.1,2.8-0.2,4.4-0.2c0,6.5,0,12.9,0,19.4
	c2-0.8,8-7.6,17.3-19c2,0,4,0,6.6,0c-5,4.1-9.6,8-14.4,11.9c0.7,0.4,1.1,0.7,1.5,0.9c6,2.7,9.4,7.4,10.7,13.7
	c0.8,3.8,1.4,7.7,2.2,11.5c0.2,1.2,0.6,2.4,0.9,3.7c-1.2,0-2.4,0-3.5,0c-1.2,0-1.7-0.6-1.8-1.6c-0.3-2.3-0.7-4.7-0.9-7.1
	c-0.3-3.3-0.5-6.7-0.9-10c-0.6-4.8-3.8-7.7-7.9-9.7c-0.8-0.4-1.5-0.2-2.1,0.4c-2.2,2.2-4.4,4.4-6.7,6.6c-0.8,0.7-0.7,1.7-0.7,2.6
	c0,5.4,0,10.7,0,16.1C188.8,41.4,188.8,42.2,188.8,43.4z"/>
<path class="st0" d="M114.9,1.2c4,0,7.5-0.3,11,0.1c6.3,0.7,11.3,3.9,14.9,9.2c3,4.3,2.3,10.9-1.5,15.1c-4,4.5-9,6.6-14.9,7
	c-1,0.1-2,0-3.1,0c0.6-0.9,1.5-0.6,2.3-0.6c2.4-0.1,4.7-0.7,6.8-1.9c5.7-3.2,8.7-9.5,7.4-16.4c-1-5-3.8-8.6-8.6-10.5
	c-3.1-1.3-6.4-2-10-1.6c0,13.9,0,27.7,0,41.8c-1.6,0-2.9,0-4.2,0C114.9,29.3,114.9,15.3,114.9,1.2z"/>
<path class="st0" d="M44.8,2.5c1.3-0.5,2.4-1,3.8-1.6C54.2,15,59.3,29,64.7,43.2c-0.5,0.1-0.8,0.2-1.1,0.1c-1.1,0-2.3-0.1-3.6-0.2
	c-0.5-1.5-1.1-2.9-1.6-4.3c-1.6-4.4-3.3-8.7-4.8-13.1c-0.4-1.2-1.1-1.6-2.4-1.6c-1.9,0.1-3.8,0-5.8,0c-1.8,6.4-3.5,12.6-5.2,19
	c-1,0-2.3,0-3.8,0c0.4-1,0.7-1.9,1.1-2.7c2.9-7.5,5.9-14.9,8.7-22.4c0.8-2.1,1.9-4.3,1.9-6.5c-0.1-2.2-1.4-4.3-2.2-6.4
	C45.5,4.4,45.2,3.6,44.8,2.5z M45.7,23c2.4,0,4.5,0,6.8,0c-1.2-3.1-2.3-5.8-3.3-8.5c-0.2,0-0.3,0-0.5,0C47.4,17.1,47,20,45.7,23z"/>
<path class="st0" d="M155.8,2.5c1.3-0.5,2.4-1,3.8-1.6c5.5,14.1,10.7,28.1,16.1,42.3c-0.5,0.1-0.8,0.2-1.1,0.1
	c-1.1,0-2.3-0.1-3.6-0.2c-0.5-1.5-1.1-2.9-1.6-4.3c-1.6-4.4-3.3-8.7-4.8-13.1c-0.4-1.2-1.1-1.6-2.4-1.6c-1.9,0.1-3.8,0-5.8,0
	c-1.8,6.4-3.5,12.6-5.2,19c-1,0-2.3,0-3.8,0c0.4-1,0.7-1.9,1.1-2.7c2.9-7.5,5.9-14.9,8.7-22.4c0.8-2.1,1.9-4.3,1.9-6.5
	c-0.1-2.2-1.4-4.3-2.2-6.4C156.5,4.4,156.2,3.6,155.8,2.5z M156.7,23c2.4,0,4.5,0,6.8,0c-1.2-3.1-2.3-5.8-3.3-8.5
	c-0.2,0-0.3,0-0.5,0C158.4,17.1,158,20,156.7,23z"/>
<path class="st0" d="M23.5,1.4c0.1,0.5,0.1,0.9,0.1,1.3c0,0.8,0,1.7,0,3c-0.8-0.7-1.4-1.1-2-1.6c-2.6-2.1-5.5-3.4-8.9-3.2
	C11.6,1,10.3,1.2,9.3,1.8C6.5,3.3,6,6.6,8.3,8.9c1.3,1.3,2.8,2.3,4.3,3.4c3.6,2.5,7.3,4.8,10.4,7.9c2,2.1,3.5,4.4,4.2,7.3
	c1.5,6.7-2.8,13.4-9.8,15.1c-4.5,1.1-9,0.8-13.4-0.3c-1.3-0.3-2.6-0.8-4-1.2c0-1.9,0-3.7,0-5.6c1.6,1.4,2.9,2.7,4.5,3.8
	C8.1,42,12,43,16.4,42c7.8-1.8,10-11,5.2-16.5c-2.7-3.2-6.2-5.4-9.6-7.8c-1.8-1.2-3.6-2.4-5.2-3.8c-3.2-2.7-3.9-6.3-2-9.6
	c1.2-2,3-3.2,5.3-3.7c3.5-0.8,7-0.5,10.5,0.2C21.6,0.9,22.5,1.1,23.5,1.4z"/>
</svg>
