<?xml version="1.0" encoding="utf-8"?>
<!-- Generator: Adobe Illustrator 19.2.1, SVG Export Plug-In . SVG Version: 6.00 Build 0)  -->
<svg version="1.1" id="Layer_1" xmlns="http://www.w3.org/2000/svg" xmlns:xlink="http://www.w3.org/1999/xlink" x="0px" y="0px"
	 viewBox="0 0 122.7 122.7" style="enable-background:new 0 0 122.7 122.7;" xml:space="preserve">
<style type="text/css">
	.st0{fill:#916629;}
</style>
<g>
	<path class="st0" d="M61.9,123.3C28,123.3,0.4,95.7,0.4,61.8C0.4,27.9,28,0.3,61.9,0.3s61.5,27.6,61.5,61.5
		C123.4,95.7,95.8,123.3,61.9,123.3z M61.9,3.3C29.6,3.3,3.4,29.6,3.4,61.8c0,32.3,26.2,58.5,58.5,58.5c32.3,0,58.5-26.2,58.5-58.5
		C120.4,29.6,94.2,3.3,61.9,3.3z"/>
	<path class="st0" d="M38.2,70.1c0.1,0,0.2-0.1,0.2-0.2l0.6-4.6l-0.6-4.7c0-0.1-0.1-0.2-0.2-0.2c-0.1,0-0.2,0.1-0.2,0.2l-0.5,4.7
		l0.5,4.6C38,70,38.1,70.1,38.2,70.1z M36.5,68.1L36.5,68.1L36.5,68.1L36.5,68.1z M36.3,68.3c0.1,0,0.2-0.1,0.2-0.2l0.5-2.9
		l-0.5-2.9c0-0.1-0.1-0.2-0.2-0.2c-0.1,0-0.2,0.1-0.2,0.2l-0.4,2.9l0.4,2.9C36.1,68.3,36.1,68.3,36.3,68.3z M40.5,59.7
		c0-0.1-0.1-0.3-0.3-0.3c-0.1,0-0.2,0.1-0.3,0.3c0,0-0.5,5.6-0.5,5.6l0.5,5.4c0,0.1,0.1,0.3,0.3,0.3c0.1,0,0.2-0.1,0.3-0.3l0.6-5.4
		L40.5,59.7z M42.3,71.1c0.2,0,0.3-0.1,0.3-0.3l0,0l0.5-5.6l-0.5-5.8c0-0.2-0.1-0.3-0.3-0.3c-0.2,0-0.3,0.1-0.3,0.3l-0.5,5.8
		l0.5,5.6C42,71,42.2,71.1,42.3,71.1z M44.4,71.2c0.2,0,0.3-0.1,0.4-0.3l0,0l0.5-5.6l-0.5-5.3c0-0.2-0.2-0.3-0.4-0.3
		c-0.2,0-0.3,0.1-0.3,0.3l-0.4,5.3l0.4,5.6C44.1,71.1,44.2,71.2,44.4,71.2z M47.4,65.3l-0.5-8.7c0-0.2-0.2-0.4-0.4-0.4
		c-0.2,0-0.4,0.2-0.4,0.4l-0.4,8.7l0.4,5.6c0,0.2,0.2,0.4,0.4,0.4c0.2,0,0.4-0.2,0.4-0.4v0L47.4,65.3z M48.7,71.3
		c0.2,0,0.4-0.2,0.4-0.4v0l0.4-5.6l-0.4-10.7c0-0.2-0.2-0.4-0.4-0.4c-0.2,0-0.4,0.2-0.4,0.4l-0.4,10.7l0.4,5.6
		C48.2,71.1,48.4,71.3,48.7,71.3z M50.8,53.2c-0.3,0-0.5,0.2-0.5,0.5L50,65.3l0.4,5.5c0,0.3,0.2,0.5,0.5,0.5c0.3,0,0.5-0.2,0.5-0.5
		v0l0.4-5.5l-0.4-11.6C51.3,53.4,51.1,53.2,50.8,53.2z M53,71.3c0.3,0,0.5-0.2,0.5-0.5v0l0.4-5.5l-0.4-12c0-0.3-0.2-0.5-0.5-0.5
		c-0.3,0-0.5,0.2-0.5,0.5l-0.3,12l0.3,5.5C52.5,71.1,52.7,71.3,53,71.3z M55.2,71.3c0.3,0,0.6-0.3,0.6-0.6v0l0.3-5.4l-0.3-11.7
		c0-0.3-0.3-0.6-0.6-0.6c-0.3,0-0.6,0.2-0.6,0.6l-0.3,11.7l0.3,5.4C54.6,71,54.8,71.3,55.2,71.3z M58.3,65.3L58,54
		c0-0.3-0.3-0.6-0.6-0.6c-0.3,0-0.6,0.3-0.6,0.6l-0.3,11.2l0.3,5.4c0,0.3,0.3,0.6,0.6,0.6c0.3,0,0.6-0.3,0.6-0.6v0L58.3,65.3z
		 M59.6,71.3c0.4,0,0.7-0.3,0.7-0.7v0l0.3-5.4l-0.3-13.4c0-0.4-0.3-0.7-0.7-0.7c-0.4,0-0.7,0.3-0.7,0.7l-0.3,13.4
		c0,0,0.3,5.4,0.3,5.4C58.9,71,59.2,71.3,59.6,71.3z M61.8,50c-0.4,0-0.7,0.3-0.7,0.7l-0.3,14.6l0.3,5.3c0,0.4,0.3,0.7,0.7,0.7
		c0.4,0,0.7-0.3,0.7-0.7v0l0.3-5.3l-0.3-14.6C62.5,50.3,62.2,50,61.8,50z M63.8,71.3c0,0,17.8,0,17.9,0c3.6,0,6.5-2.9,6.5-6.5
		c0-3.6-2.9-6.5-6.5-6.5c-0.9,0-1.7,0.2-2.5,0.5c-0.5-5.8-5.4-10.4-11.3-10.4c-1.5,0-2.9,0.3-4.1,0.8c-0.5,0.2-0.6,0.4-0.6,0.8v20.5
		C63.1,70.9,63.4,71.3,63.8,71.3z"/>
</g>
</svg>
