<?xml version="1.0" encoding="utf-8"?>
<!-- Generator: Adobe Illustrator 19.2.1, SVG Export Plug-In . SVG Version: 6.00 Build 0)  -->
<svg version="1.1" id="Layer_1" xmlns="http://www.w3.org/2000/svg" xmlns:xlink="http://www.w3.org/1999/xlink" x="0px" y="0px"
	 viewBox="0 0 122.7 122.7" style="enable-background:new 0 0 122.7 122.7;" xml:space="preserve">
<style type="text/css">
	.st0{fill:#916629;}
</style>
<g>
	<path class="st0" d="M62.1,123.3c-33.9,0-61.5-27.6-61.5-61.5c0-33.9,27.6-61.5,61.5-61.5c33.9,0,61.5,27.6,61.5,61.5
		C123.6,95.7,96,123.3,62.1,123.3z M62.1,3.3C29.8,3.3,3.6,29.6,3.6,61.8c0,32.3,26.2,58.5,58.5,58.5c32.3,0,58.5-26.2,58.5-58.5
		C120.6,29.6,94.3,3.3,62.1,3.3z"/>
	<path class="st0" d="M89.1,48c-2,0.9-4.1,1.5-6.4,1.7c2.3-1.4,4-3.5,4.9-6.1c-2.1,1.3-4.5,2.2-7,2.7c-2-2.2-4.9-3.5-8.1-3.5
		c-6.1,0-11.1,5-11.1,11.1c0,0.9,0.1,1.7,0.3,2.5c-9.2-0.5-17.4-4.9-22.8-11.6c-1,1.6-1.5,3.5-1.5,5.6c0,3.8,2,7.2,4.9,9.2
		c-1.8-0.1-3.5-0.6-5-1.4v0.1c0,5.4,3.8,9.8,8.9,10.9c-0.9,0.3-1.9,0.4-2.9,0.4c-0.7,0-1.4-0.1-2.1-0.2c1.4,4.4,5.5,7.6,10.3,7.7
		c-3.8,3-8.6,4.7-13.8,4.7c-0.9,0-1.8,0-2.6-0.2c4.9,3.1,10.7,5,17,5c20.4,0,31.5-16.9,31.5-31.5c0-0.5,0-1,0-1.4
		C85.7,52.2,87.6,50.2,89.1,48"/>
</g>
</svg>
