<?xml version="1.0" encoding="utf-8"?>
<!-- Generator: Adobe Illustrator 19.2.1, SVG Export Plug-In . SVG Version: 6.00 Build 0)  -->
<svg version="1.1" id="Layer_1" xmlns="http://www.w3.org/2000/svg" xmlns:xlink="http://www.w3.org/1999/xlink" x="0px" y="0px"
	 viewBox="0 0 381.9 42.9" style="enable-background:new 0 0 381.9 42.9;" xml:space="preserve">
<style type="text/css">
	.st0{fill-rule:evenodd;clip-rule:evenodd;fill:#8F642F;}
</style>
<path class="st0" d="M11.7,0.1c1.4,0,2.4,0,3.5,0c0.9,0,1.1,0.6,1.3,1.3c1,3.3,2,6.6,3,9.9c0.3,0.9,0.6,1.7,1,3
	c0.3-0.8,0.6-1.2,0.7-1.7c0.8-3.6,1.6-7.2,2.3-10.8c0.3-1.7,0.3-1.8,2.2-1.8c0.6,0,1.2,0,1.8,0c0.1,0,0.1,0.1,0.4,0.4
	c-0.2,0.6-0.5,1.4-0.7,2.1c-1.7,4.7-3.5,9.5-5.1,14.2c-0.3,0.8-0.4,1.7-0.2,2.4c1.6,5.3,3.3,10.5,5,15.8c1.6-1.8,5.2-17.2,8.3-34.9
	c0.7,0,1.4,0,2.1,0c0.7,0,1.5,0,2.6,0c-1.3,3.7-2.5,7.2-3.7,10.7c-1.2,3.6-2.4,7.2-3.6,10.9c-1.2,3.6-2.3,7.1-3.5,10.7
	c-1.2,3.5-1.9,7.1-3.7,10.3c-0.2,0-0.4,0-0.5,0c-1.7-5.4-3.4-10.7-5.2-16.5c-0.4,0.7-0.7,1.1-0.8,1.6c-1.4,4.5-2.7,8.9-4.1,13.4
	c-0.1,0.4-0.2,0.9-0.5,1.3c-0.4,0.6-1.1,0.6-1.5,0c-0.3-0.5-0.4-1-0.6-1.5C8.3,28.3,4.5,15.7,0.7,3.1C0.4,2.2,0.2,1.4,0,0.4
	c0.6-0.1,0.8-0.2,1.1-0.3c3-0.3,3.1-0.3,4,2.6c2.7,8.9,5.4,17.8,8.2,26.8c0.6,1.9,1.2,3.7,2.3,5.5c0.3-0.9,0.7-1.8,0.9-2.8
	c0.3-1,0.3-2.1,0.7-3.1c1.7-4.2,1-8.3-0.4-12.5c-1.7-4.8-3.1-9.8-4.5-14.7C12,1.5,12,1,11.7,0.1z"/>
<path class="st0" d="M155.8,4.9c0,12.6,0,25.1,0,37.8c-1.5,0-2.8,0-4,0c-0.5-2-0.5-40.3,0.1-42.4c1.6,0,3.2,0,5.1,0
	c5.7,11.8,12,23.5,18.1,35.2c0.2,0,0.4-0.1,0.5-0.1c0-11.7,0-23.4,0-35.3c1.5,0,2.6,0,4.2,0c0.5,3.5,0,7,0.1,10.6
	c0.1,3.6,0.1,7.2,0.1,10.8c0,3.5,0,7-0.1,10.6c0,3.6,0,7.1,0,10.6c-1.5,0.7-1.8-0.2-2.2-0.9c-1.8-3.3-3.7-6.5-5.5-9.8
	c-4.8-8.3-9.7-16.7-14.6-25c-0.4-0.8-1-1.5-1.4-2.2C156.2,4.8,156,4.8,155.8,4.9z"/>
<path class="st0" d="M283.8,4.9c0,12.6,0,25.1,0,37.8c-1.5,0-2.8,0-4,0c-0.5-2-0.5-40.3,0.1-42.4c1.6,0,3.2,0,5.1,0
	c5.7,11.8,12,23.5,18.1,35.2c0.2,0,0.4-0.1,0.5-0.1c0-11.7,0-23.4,0-35.3c1.5,0,2.6,0,4.2,0c0.5,3.5,0,7,0.1,10.6
	c0.1,3.6,0.1,7.2,0.1,10.8c0,3.5,0,7-0.1,10.6c0,3.6,0,7.1,0,10.6c-1.5,0.7-1.8-0.2-2.2-0.9c-1.8-3.3-3.7-6.5-5.5-9.8
	c-4.8-8.3-9.7-16.7-14.6-25c-0.4-0.8-1-1.5-1.4-2.2C284.2,4.8,284,4.8,283.8,4.9z"/>
<path class="st0" d="M83.2,42.8c-1.5,0-2.7,0-4.1,0c-0.1-13.9-0.3-27.8-0.4-41.9c1.4-0.1,2.8-0.2,4.4-0.2c0,6.5,0,12.9,0,19.4
	c2-0.8,8-7.6,17.3-19c2,0,4,0,6.6,0c-5,4.1-9.6,8-14.4,11.9c0.7,0.4,1.1,0.7,1.5,0.9c6,2.7,9.4,7.4,10.7,13.7
	c0.8,3.8,1.4,7.7,2.2,11.5c0.2,1.2,0.6,2.4,0.9,3.7c-1.2,0-2.4,0-3.5,0c-1.2,0-1.7-0.6-1.8-1.6c-0.3-2.3-0.7-4.7-0.9-7.1
	c-0.3-3.3-0.5-6.7-0.9-10c-0.6-4.8-3.8-7.7-7.9-9.7c-0.8-0.4-1.5-0.2-2.1,0.4c-2.2,2.2-4.4,4.4-6.7,6.6c-0.8,0.7-0.7,1.7-0.7,2.6
	c0,5.4,0,10.7,0,16.1C83.2,40.9,83.2,41.7,83.2,42.8z"/>
<path class="st0" d="M345.2,0.9c-0.1,1.2-0.1,2.3-0.2,3.8c-0.5-0.4-0.9-0.6-1.1-0.9c-1.8-2.1-4.1-2.9-6.7-2.9
	c-6,0.1-10.5,3-12.9,8.4c-3.5,8-3.5,16.3,0,24.3c2.6,5.9,7.6,8.3,13.9,8.3c0.7,0,1.4-0.1,2.1-0.1c0.1,0,0.3-0.1,0.6-0.3
	c0-9.7,0-19.5,0-29.5c1.5,0,2.7,0,4.3,0c0,9.9,0,19.7,0,29.6c-7,2.9-16.6,1.3-22.9-5.7c-6.2-7-6.4-17.5-1.6-25.5
	C326,1.3,335.5-1.5,345.2,0.9z"/>
<path class="st0" d="M52,2c1.3-0.5,2.4-1,3.8-1.6c5.5,14.1,10.7,28.1,16.1,42.3c-0.5,0.1-0.8,0.2-1.1,0.1c-1.1,0-2.3-0.1-3.6-0.2
	c-0.5-1.5-1.1-2.9-1.6-4.3c-1.6-4.4-3.3-8.7-4.8-13.1c-0.4-1.2-1.1-1.6-2.4-1.6c-1.9,0.1-3.8,0-5.8,0c-1.8,6.4-3.5,12.6-5.2,19
	c-1,0-2.3,0-3.8,0c0.4-1,0.7-1.9,1.1-2.7c2.9-7.5,5.9-14.9,8.7-22.4c0.8-2.1,1.9-4.3,1.9-6.5c-0.1-2.2-1.4-4.3-2.2-6.4
	C52.7,3.9,52.4,3.1,52,2z M52.9,22.5c2.4,0,4.5,0,6.8,0c-1.2-3.1-2.3-5.8-3.3-8.5c-0.2,0-0.3,0-0.5,0C54.5,16.6,54.1,19.5,52.9,22.5
	z"/>
<path class="st0" d="M124,2c1.3-0.5,2.4-1,3.8-1.6c5.5,14.1,10.7,28.1,16.1,42.3c-0.5,0.1-0.8,0.2-1.1,0.1c-1.1,0-2.3-0.1-3.6-0.2
	c-0.5-1.5-1.1-2.9-1.6-4.3c-1.6-4.4-3.3-8.7-4.8-13.1c-0.4-1.2-1.1-1.6-2.4-1.6c-1.9,0.1-3.8,0-5.8,0c-1.8,6.4-3.5,12.6-5.2,19
	c-1,0-2.3,0-3.8,0c0.4-1,0.7-1.9,1.1-2.7c2.9-7.5,5.9-14.9,8.7-22.4c0.8-2.1,1.9-4.3,1.9-6.5c-0.1-2.2-1.4-4.3-2.2-6.4
	C124.7,3.9,124.4,3.1,124,2z M124.9,22.5c2.4,0,4.5,0,6.8,0c-1.2-3.1-2.3-5.8-3.3-8.5c-0.2,0-0.3,0-0.5,0
	C126.5,16.6,126.1,19.5,124.9,22.5z"/>
<path class="st0" d="M252,2c1.3-0.5,2.4-1,3.8-1.6c5.5,14.1,10.7,28.1,16.1,42.3c-0.5,0.1-0.8,0.2-1.1,0.1c-1.1,0-2.3-0.1-3.6-0.2
	c-0.5-1.5-1.1-2.9-1.6-4.3c-1.6-4.4-3.3-8.7-4.8-13.1c-0.4-1.2-1.1-1.6-2.4-1.6c-1.9,0.1-3.8,0-5.8,0c-1.8,6.4-3.5,12.6-5.2,19
	c-1,0-2.3,0-3.8,0c0.4-1,0.7-1.9,1.1-2.7c2.9-7.5,5.9-14.9,8.7-22.4c0.8-2.1,1.9-4.3,1.9-6.5c-0.1-2.2-1.4-4.3-2.2-6.4
	C252.7,3.9,252.4,3.1,252,2z M252.9,22.5c2.4,0,4.5,0,6.8,0c-1.2-3.1-2.3-5.8-3.3-8.5c-0.2,0-0.3,0-0.5,0
	C254.5,16.6,254.1,19.5,252.9,22.5z"/>
<path class="st0" d="M362,2c1.3-0.5,2.4-1,3.8-1.6c5.5,14.1,10.7,28.1,16.1,42.3c-0.5,0.1-0.8,0.2-1.1,0.1c-1.1,0-2.3-0.1-3.6-0.2
	c-0.5-1.5-1.1-2.9-1.6-4.3c-1.6-4.4-3.3-8.7-4.8-13.1c-0.4-1.2-1.1-1.6-2.4-1.6c-1.9,0.1-3.8,0-5.8,0c-1.8,6.4-3.5,12.6-5.2,19
	c-1,0-2.3,0-3.8,0c0.4-1,0.7-1.9,1.1-2.7c2.9-7.5,5.9-14.9,8.7-22.4c0.8-2.1,1.9-4.3,1.9-6.5c-0.1-2.2-1.4-4.3-2.2-6.4
	C362.7,3.9,362.4,3.1,362,2z M362.9,22.5c2.4,0,4.5,0,6.8,0c-1.2-3.1-2.3-5.8-3.3-8.5c-0.2,0-0.3,0-0.5,0
	C364.5,16.6,364.1,19.5,362.9,22.5z"/>
<path class="st0" d="M209.3,3.9c0-1.2,0-2.1,0-3.3c11,0,21.9,0,32.8,0c0,1.1,0,2,0,2.9c-4.7-0.9-9.3-1.8-14.2-2.7c0,14.2,0,28,0,42
	c-1.6,0-2.8,0-4.3,0c-0.1-0.5-0.3-1.1-0.3-1.7c0.1-9.3,0.2-18.7,0.3-28c0-3.5,0-7,0-10.6c0-0.4-0.1-0.9-0.2-1.5
	C218.5,1.3,214,2.6,209.3,3.9z"/>
</svg>
