<?xml version="1.0" encoding="utf-8"?>
<!-- Generator: Adobe Illustrator 19.2.1, SVG Export Plug-In . SVG Version: 6.00 Build 0)  -->
<svg version="1.1" id="Layer_1" xmlns="http://www.w3.org/2000/svg" xmlns:xlink="http://www.w3.org/1999/xlink" x="0px" y="0px"
	 viewBox="0 0 122.7 122.7" style="enable-background:new 0 0 122.7 122.7;" xml:space="preserve">
<style type="text/css">
	.st0{fill:#916629;}
</style>
<g>
	<path class="st0" d="M61.6,123.3c-33.9,0-61.5-27.6-61.5-61.5c0-33.9,27.6-61.5,61.5-61.5c33.9,0,61.5,27.6,61.5,61.5
		C123.1,95.7,95.5,123.3,61.6,123.3z M61.6,3.3C29.4,3.3,3.1,29.6,3.1,61.8c0,32.3,26.2,58.5,58.5,58.5c32.3,0,58.5-26.2,58.5-58.5
		C120.1,29.6,93.9,3.3,61.6,3.3z"/>
	<path class="st0" d="M72.7,43.6v10.3c-0.2,0.3-0.5,0.5-0.8,0.7c-0.3,0.2-0.6,0.3-0.8,0.3c-0.2,0-0.4-0.1-0.5-0.2
		c-0.1-0.2-0.2-0.4-0.2-0.7V43.6h-2.8v11.3c0,0.8,0.2,1.4,0.5,1.8c0.3,0.4,0.8,0.6,1.4,0.6c0.5,0,1.1-0.1,1.6-0.4
		c0.5-0.3,1.1-0.7,1.6-1.3v1.5h2.8V43.6H72.7z M64.2,44.2c-0.7-0.7-1.7-1-2.8-1c-1.3,0-2.3,0.3-3,1c-0.7,0.6-1.1,1.4-1.1,2.5v7
		c0,1.2,0.4,2.1,1.1,2.7c0.7,0.7,1.7,1,2.9,1c1.3,0,2.3-0.3,3-1c0.7-0.7,1.1-1.5,1.1-2.7v-7C65.3,45.7,64.9,44.9,64.2,44.2z
		 M62.5,54c0,0.4-0.1,0.6-0.3,0.8c-0.2,0.2-0.5,0.3-0.9,0.3c-0.4,0-0.7-0.1-0.8-0.3c-0.2-0.2-0.3-0.5-0.3-0.8v-7.4
		c0-0.3,0.1-0.5,0.3-0.7c0.2-0.2,0.5-0.3,0.8-0.3c0.4,0,0.7,0.1,0.9,0.3c0.2,0.2,0.3,0.4,0.3,0.7V54z M53.9,38.8l-1.9,7.4h-0.2
		l-2-7.4h-3.2l3.7,11.1v7.3h3.1v-7.6L57,38.8H53.9z M75.5,71.1c0.2,0.2,0.2,0.6,0.2,1.1v1.3h-2.1v-1.3c0-0.5,0.1-0.9,0.2-1.1
		c0.2-0.2,0.4-0.4,0.8-0.4C75.1,70.8,75.4,70.9,75.5,71.1z M67,71.1c-0.2-0.2-0.4-0.3-0.8-0.3c-0.2,0-0.4,0-0.5,0.1
		c-0.2,0.1-0.4,0.2-0.5,0.4v7.7c0.2,0.2,0.4,0.4,0.6,0.4c0.2,0.1,0.4,0.1,0.6,0.1c0.3,0,0.5-0.1,0.7-0.3c0.1-0.2,0.2-0.4,0.2-0.8V72
		C67.2,71.6,67.2,71.3,67,71.1z M67,71.1c-0.2-0.2-0.4-0.3-0.8-0.3c-0.2,0-0.4,0-0.5,0.1c-0.2,0.1-0.4,0.2-0.5,0.4v7.7
		c0.2,0.2,0.4,0.4,0.6,0.4c0.2,0.1,0.4,0.1,0.6,0.1c0.3,0,0.5-0.1,0.7-0.3c0.1-0.2,0.2-0.4,0.2-0.8V72C67.2,71.6,67.2,71.3,67,71.1z
		 M80.9,61.6H42.3c-4.2,0-7.7,3.5-7.7,7.7v7.9c0,4.2,3.5,7.7,7.7,7.7h38.6c4.2,0,7.7-3.5,7.7-7.7v-7.9C88.6,65,85.1,61.6,80.9,61.6z
		 M52.7,67h-2.9v14.3h-2.8V67h-2.9v-2.4h8.5V67z M60.8,81.2h-2.5v-1.4c-0.4,0.5-0.9,0.9-1.4,1.1c-0.5,0.3-1,0.4-1.4,0.4
		c-0.6,0-1-0.2-1.3-0.6c-0.3-0.4-0.4-0.9-0.4-1.6V68.9h2.4v9.5c0,0.3,0.1,0.5,0.2,0.6c0.1,0.1,0.3,0.2,0.5,0.2
		c0.2,0,0.4-0.1,0.7-0.3c0.3-0.2,0.5-0.4,0.8-0.7v-9.4h2.5V81.2z M69.8,78.7c0,0.9-0.2,1.6-0.6,2c-0.4,0.5-1,0.7-1.7,0.7
		c-0.5,0-0.9-0.1-1.3-0.3c-0.4-0.2-0.7-0.5-1.1-0.8v1h-2.5V64.6h2.5v5.4c0.3-0.4,0.7-0.7,1.1-0.8c0.4-0.2,0.8-0.3,1.1-0.3
		c0.8,0,1.4,0.3,1.8,0.8c0.4,0.5,0.6,1.3,0.6,2.3V78.7z M78.3,75.4h-4.7v2.3c0,0.7,0.1,1.1,0.2,1.3c0.2,0.3,0.5,0.4,0.8,0.4
		c0.4,0,0.7-0.1,0.8-0.3c0.2-0.2,0.2-0.7,0.2-1.4v-0.6h2.6v0.6c0,1.3-0.3,2.2-1,2.9c-0.6,0.6-1.5,1-2.7,1c-1.1,0-2-0.3-2.6-1
		c-0.6-0.7-0.9-1.6-0.9-2.8v-5.5c0-1.1,0.4-1.9,1.1-2.6c0.7-0.7,1.6-1,2.7-1c1.1,0,2,0.3,2.6,1c0.6,0.6,0.9,1.5,0.9,2.7V75.4z
		 M66.2,70.7c-0.2,0-0.4,0-0.5,0.1c-0.2,0.1-0.4,0.2-0.5,0.4v7.7c0.2,0.2,0.4,0.4,0.6,0.4c0.2,0.1,0.4,0.1,0.6,0.1
		c0.3,0,0.5-0.1,0.7-0.3c0.1-0.2,0.2-0.4,0.2-0.8V72c0-0.4-0.1-0.7-0.3-0.9C66.8,70.8,66.5,70.7,66.2,70.7z M67,71.1
		c-0.2-0.2-0.4-0.3-0.8-0.3c-0.2,0-0.4,0-0.5,0.1c-0.2,0.1-0.4,0.2-0.5,0.4v7.7c0.2,0.2,0.4,0.4,0.6,0.4c0.2,0.1,0.4,0.1,0.6,0.1
		c0.3,0,0.5-0.1,0.7-0.3c0.1-0.2,0.2-0.4,0.2-0.8V72C67.2,71.6,67.2,71.3,67,71.1z M67,71.1c-0.2-0.2-0.4-0.3-0.8-0.3
		c-0.2,0-0.4,0-0.5,0.1c-0.2,0.1-0.4,0.2-0.5,0.4v7.7c0.2,0.2,0.4,0.4,0.6,0.4c0.2,0.1,0.4,0.1,0.6,0.1c0.3,0,0.5-0.1,0.7-0.3
		c0.1-0.2,0.2-0.4,0.2-0.8V72C67.2,71.6,67.2,71.3,67,71.1z"/>
</g>
</svg>
