<?xml version="1.0" encoding="utf-8"?>
<!-- Generator: Adobe Illustrator 19.2.1, SVG Export Plug-In . SVG Version: 6.00 Build 0)  -->
<svg version="1.1" id="Layer_1" xmlns="http://www.w3.org/2000/svg" xmlns:xlink="http://www.w3.org/1999/xlink" x="0px" y="0px"
	 viewBox="0 0 456 43.4" style="enable-background:new 0 0 456 43.4;" xml:space="preserve">
<style type="text/css">
	.st0{fill-rule:evenodd;clip-rule:evenodd;fill:#8F642F;}
</style>
<g>
	<path class="st0" d="M254.6,5.1c0,12.6,0,25.1,0,37.8c-1.5,0-2.8,0-4,0c-0.5-2-0.5-40.3,0.1-42.4c1.6,0,3.2,0,5.1,0
		c5.7,11.8,12,23.5,18.1,35.2c0.2,0,0.4-0.1,0.5-0.1c0-11.7,0-23.4,0-35.3c1.5,0,2.6,0,4.2,0c0.5,3.5,0,7,0.1,10.6
		c0.1,3.6,0.1,7.2,0.1,10.8c0,3.5,0,7-0.1,10.6c0,3.6,0,7.1,0,10.6c-1.5,0.7-1.8-0.2-2.2-0.9c-1.8-3.3-3.7-6.5-5.5-9.8
		c-4.8-8.3-9.7-16.7-14.6-25c-0.4-0.8-1-1.5-1.4-2.2C254.9,5,254.7,5.1,254.6,5.1z"/>
	<path class="st0" d="M394.5,5.1c0,12.6,0,25.1,0,37.8c-1.5,0-2.8,0-4,0c-0.5-2-0.5-40.3,0.1-42.4c1.6,0,3.2,0,5.1,0
		c5.7,11.8,12,23.5,18.1,35.2c0.2,0,0.4-0.1,0.5-0.1c0-11.7,0-23.4,0-35.3c1.5,0,2.6,0,4.2,0c0.5,3.5,0,7,0.1,10.6
		c0.1,3.6,0.1,7.2,0.1,10.8c0,3.5,0,7-0.1,10.6c0,3.6,0,7.1,0,10.6c-1.5,0.7-1.8-0.2-2.2-0.9c-1.8-3.3-3.7-6.5-5.5-9.8
		c-4.8-8.3-9.7-16.7-14.6-25c-0.4-0.8-1-1.5-1.4-2.2C394.8,5,394.7,5.1,394.5,5.1z"/>
	<path class="st0" d="M363.6,1.2c0,13.8,0,27.5,0,41.5c-1.3,0.1-2.5,0.2-4.1,0.3c-0.4-7.2-0.2-14.3-0.1-21.3c0.1-7-0.3-14,0.1-21.1
		c5.6-0.4,10.9-0.4,15.5,3.1c4.4,3.3,5.3,8.1,2.4,12.7c-1.5,2.4-3.4,4.3-5.9,5.7c-0.5,0.3-0.9,0.5-1.4,0.9c0.2,0.3,0.2,0.5,0.4,0.6
		c4.6,2.4,6.4,6.5,7.3,11.3c0.5,2.6,1.1,5.2,1.8,8c-1.1,0-2.4,0.1-3.7-0.1c-0.4-0.1-1-1-1.1-1.5c-0.4-2.5-0.7-5-1.1-7.5
		c-0.2-1.7-0.4-3.3-0.8-5c-0.2-0.9-0.7-1.9-1.3-2.7c-0.6-0.9-1.4-1.6-2.2-2.3c-1.1-0.9-2,0.4-3,0.4c-0.2,0-0.4,0-0.8-0.3
		c0.4-0.2,0.9-0.5,1.3-0.7c5.4-2.5,8-7.1,7.5-12.9C374,5.2,370.1,1,363.6,1.2z"/>
	<path class="st0" d="M91,21.3c0.2-5.7,2.2-10.6,5.6-15c1.5-1.9,3.2-3.5,5.3-4.7c4.1-2.2,8.1-2.1,12,0.4c4.6,2.9,7.5,7.2,9,12.3
		c2.1,6.9,1.2,13.5-2.2,19.8c-2.2,4.1-5.3,7.3-9.8,8.8c-3.4,1.1-6.6,0.6-9.5-1.2c-6-3.8-9.1-9.5-10.1-16.4
		C91.1,23.9,91.1,22.6,91,21.3z M119.4,20.5c-0.2-2-0.4-4.6-0.9-7.3c-0.6-3.8-2-7.2-4.8-9.9c-3.8-3.7-8.8-3.6-12.4,0.2
		c-2.5,2.6-3.8,5.9-4.5,9.4c-1.1,5.5-1.1,11.1,0,16.6c0.7,3.9,2,7.5,4.9,10.4c3.5,3.5,8.1,3.6,11.6,0.2c1.1-1,2-2.3,2.8-3.6
		C118.7,31.7,119.1,26.5,119.4,20.5z"/>
	<path class="st0" d="M161,21.3c0.2-5.7,2.2-10.6,5.6-15c1.5-1.9,3.2-3.5,5.3-4.7c4.1-2.2,8.1-2.1,12,0.4c4.6,2.9,7.5,7.2,9,12.3
		c2.1,6.9,1.2,13.5-2.2,19.8c-2.2,4.1-5.3,7.3-9.8,8.8c-3.4,1.1-6.6,0.6-9.5-1.2c-6-3.8-9.1-9.5-10.1-16.4
		C161.1,23.9,161.1,22.6,161,21.3z M189.4,20.5c-0.2-2-0.4-4.6-0.9-7.3c-0.6-3.8-2-7.2-4.8-9.9c-3.8-3.7-8.8-3.6-12.4,0.2
		c-2.5,2.6-3.8,5.9-4.5,9.4c-1.1,5.5-1.1,11.1,0,16.6c0.7,3.9,2,7.5,4.9,10.4c3.5,3.5,8.1,3.6,11.6,0.2c1.1-1,2-2.3,2.8-3.6
		C188.7,31.7,189.1,26.5,189.4,20.5z"/>
	<path class="st0" d="M423,21.3c0.2-5.7,2.2-10.6,5.6-15c1.5-1.9,3.2-3.5,5.3-4.7c4.1-2.2,8.1-2.1,12,0.4c4.6,2.9,7.5,7.2,9,12.3
		c2.1,6.9,1.2,13.5-2.2,19.8c-2.2,4.1-5.3,7.3-9.8,8.8c-3.4,1.1-6.6,0.6-9.5-1.2c-6-3.8-9.1-9.5-10.1-16.4
		C423,23.9,423,22.6,423,21.3z M451.3,20.5c-0.2-2-0.4-4.6-0.9-7.3c-0.6-3.8-2-7.2-4.8-9.9c-3.8-3.7-8.8-3.6-12.4,0.2
		c-2.5,2.6-3.8,5.9-4.5,9.4c-1.1,5.5-1.1,11.1,0,16.6c0.7,3.9,2,7.5,4.9,10.4c3.5,3.5,8.1,3.6,11.6,0.2c1.1-1,2-2.3,2.8-3.6
		C450.7,31.7,451.1,26.5,451.3,20.5z"/>
	<path class="st0" d="M0.6,42.8C0.4,28.5,0.2,14.7,0,0.6c8.4,0,16.6,0,25,0c0,1.1,0,2.2,0,3.6C21.6,3.6,18.3,3,14.9,2.5
		C11.6,2,8.2,1.7,5,1.3C4.3,3.1,4.2,5.5,4.7,8.6C12.3,8.4,20,8.2,27.8,7.3c0,1,0,1.9,0,3C20.1,9.7,12.4,9.6,4.5,9.6
		C4.3,20.5,4.9,31.2,4.9,42.1c8-0.4,15.8-1.3,23.6-2.9c0.1,0.4,0.2,0.7,0.2,1c0,0.8,0,1.7,0,2.6C19.3,42.8,10.1,42.8,0.6,42.8z"/>
	<path class="st0" d="M320.8,42.8c-0.2-14.2-0.4-28.1-0.6-42.2c8.4,0,16.6,0,25,0c0,1.1,0,2.2,0,3.6c-3.4-0.6-6.8-1.3-10.1-1.8
		c-3.3-0.5-6.7-0.8-9.9-1.2c-0.7,1.8-0.7,4.2-0.3,7.3c7.6-0.1,15.3-0.4,23.2-1.3c0,1,0,1.9,0,3c-7.7-0.6-15.4-0.8-23.3-0.8
		c-0.3,10.9,0.4,21.6,0.3,32.5c8-0.4,15.8-1.3,23.6-2.9c0.1,0.4,0.2,0.7,0.2,1c0,0.8,0,1.7,0,2.6C339.5,42.8,330.2,42.8,320.8,42.8z
		"/>
	<path class="st0" d="M283.1,3.9c0-1.2,0-2.1,0-3.3c11,0,21.9,0,32.8,0c0,1.1,0,2,0,2.9c-4.7-0.9-9.3-1.8-14.2-2.7c0,14.2,0,28,0,42
		c-1.6,0-2.8,0-4.3,0c-0.1-0.5-0.3-1.1-0.3-1.7c0.1-9.3,0.2-18.7,0.3-28c0-3.5,0-7,0-10.6c0-0.4-0.1-0.9-0.2-1.5
		C292.4,1.2,287.8,2.5,283.1,3.9z"/>
	<path class="st0" d="M60.8,39.1c0,1.4,0,2.5,0,3.7c-7.6,0-15,0-22.6,0c-0.4-14-0.4-27.8-0.3-41.9c1.3-0.1,2.5-0.2,4-0.3
		C42,14.5,42.2,28.1,42.3,42C48.6,41.5,54.6,40.7,60.8,39.1z"/>
	<path class="st0" d="M132.8,35.8c1.3,0,2.6,0,4.1,0c0.1,0.7,0.1,1.3,0.2,1.9c0.4,2.1,1.5,3.7,3.7,4.2c2,0.5,3.9-0.1,5.3-1.9
		c1.2-1.6,1.8-3.4,1.8-5.3c0.1-4.5,0.1-9,0.1-13.5c0-6.1-0.1-12.2-0.1-18.4c0-0.7,0-1.5,0-2.4c1.4,0,2.6,0,3.9,0
		c0.1,0.3,0.3,0.8,0.3,1.2c0.1,9.8,0.3,19.6,0.4,29.4c0,4.8-2,8.6-6.3,10.9c-5,2.8-11.8-0.1-13.4-5.5
		C132.6,36.3,132.7,36.1,132.8,35.8z"/>
	<path class="st0" d="M227.1,0.8c1.6,0,2.8,0,3.9,0c0.7,1.8,1.3,37,0.7,41.9c-1.3,0-2.6,0-4.1,0C227.5,28.7,227.3,14.9,227.1,0.8z"
		/>
</g>
</svg>
