<?xml version="1.0" encoding="utf-8"?>
<!-- Generator: Adobe Illustrator 16.0.0, SVG Export Plug-In . SVG Version: 6.00 Build 0)  -->
<!DOCTYPE svg PUBLIC "-//W3C//DTD SVG 1.1//EN" "http://www.w3.org/Graphics/SVG/1.1/DTD/svg11.dtd">
<svg version="1.1" id="Layer_1" xmlns="http://www.w3.org/2000/svg" xmlns:xlink="http://www.w3.org/1999/xlink" x="0px" y="0px"
	 width="44.334px" height="37.917px" viewBox="0 0 44.334 37.917" enable-background="new 0 0 44.334 37.917" xml:space="preserve">
<g>
	<g>
		<path fill="#FFFFFF" d="M23.001,10.825c0-0.25-0.196-0.459-0.445-0.459c-0.25,0-0.472,0.21-0.459,0.459
			c0.014,0.288,0.236,0.446,0.459,0.446C22.792,11.271,23.001,11.074,23.001,10.825z"/>
		<g>
			<path fill="#906328" d="M23.265,9.172c0.091,0.013,0.183,0.026,0.275,0.026c0.289,0.04,0.577,0.065,0.866,0.105
				c0.249,0.026,0.511,0.052,0.76,0.091c0.263,0.027,0.538,0.066,0.8,0.105c0.341,0.053,0.669,0.104,1.01,0.157
				c0.656,0.118,1.312,0.249,1.915,0.551c0.604,0.289,1.102,0.708,1.43,1.298c0.197,0.354,0.314,0.722,0.354,1.128
				c0.026,0.197,0.039,0.38,0.013,0.59c-0.013-0.013-0.013-0.013-0.026-0.013c-0.302-0.394-0.682-0.656-1.128-0.866
				c-0.499-0.237-1.023-0.381-1.562-0.472c-0.38-0.066-0.76-0.118-1.141-0.145c-0.551-0.052-1.115-0.052-1.679-0.04
				c-0.262,0.014-0.538,0.026-0.8,0.04c-0.236,0.013-0.472,0.04-0.708,0.066c0.105-0.144,0.105-0.302,0.105-0.459
				c0-0.485,0-0.983,0-1.469c0-0.052,0-0.105-0.013-0.157c-0.04-0.131-0.158-0.236-0.328-0.236
				c-0.629,0.013-1.194,0.184-1.614,0.682c-0.209,0.249-0.328,0.551-0.367,0.866c-0.092,0.668,0.039,1.298,0.328,1.902
				c0.275,0.604,0.564,1.22,0.852,1.823c0.393,0.866,0.761,1.731,1.01,2.649c0.131,0.459,0.223,0.931,0.289,1.403
				c0.052,0.42,0.065,0.853,0.052,1.273c-0.052,1.075-0.38,2.059-0.997,2.938c-0.014,0.026-0.026,0.04-0.04,0.066
				c0.026,0.026,0.052,0.039,0.078,0.053c0.604,0.419,1.194,0.826,1.798,1.245c0.13,0.092,0.262,0.224,0.38,0.329
				c0.078,0.065,0.065,0.091,0.026,0.17c-0.131,0.249-0.262,0.485-0.394,0.734c-0.079,0.145-0.17,0.262-0.289,0.367
				c-0.118,0.105-0.262,0.145-0.419,0.145c-0.092,0-0.105,0-0.105,0.092c0.026,0.381-0.17,0.63-0.459,0.826
				c-0.223,0.158-0.446,0.302-0.655,0.459c-0.04,0.026-0.079,0.026-0.105,0c-0.026-0.026-0.04-0.04-0.066-0.065
				c-0.328-0.341-0.669-0.682-0.984-1.023c-1.193-1.272-2.23-2.65-3.122-4.145c-0.445-0.748-0.812-1.548-1.075-2.374
				c-0.105-0.314-0.157-0.643-0.197-0.971c-0.039-0.275-0.078-0.538-0.104-0.813c-0.013-0.17-0.026-0.328-0.04-0.498
				c0-0.04-0.013-0.079-0.013-0.118c0-0.065,0-0.131,0-0.197c0-0.026,0.013-0.052,0.013-0.079c0.013-0.223,0.013-0.446,0.04-0.669
				c0.039-0.354,0.079-0.695,0.157-1.049c0.236-1.128,0.682-2.165,1.298-3.135c0.355-0.551,0.761-1.05,1.208-1.535
				c0.407-0.446,0.853-0.827,1.377-1.115c0.486-0.275,0.997-0.446,1.561-0.498c0.092-0.013,0.17-0.026,0.262-0.026
				C23.12,9.172,23.186,9.172,23.265,9.172z"/>
			<path fill="#906328" d="M23.001,10.825c0,0.249-0.196,0.446-0.445,0.446c-0.223,0-0.446-0.158-0.459-0.446
				c-0.012-0.25,0.21-0.459,0.459-0.459C22.805,10.365,23.001,10.562,23.001,10.825z"/>
		</g>
	</g>
	<circle fill="none" stroke="#906328" stroke-width="0.9274" stroke-miterlimit="10" cx="23.262" cy="17.613" r="11.554"/>
</g>
</svg>
