<?xml version="1.0" encoding="utf-8"?>
<!-- Generator: Adobe Illustrator 16.0.0, SVG Export Plug-In . SVG Version: 6.00 Build 0)  -->
<!DOCTYPE svg PUBLIC "-//W3C//DTD SVG 1.1//EN" "http://www.w3.org/Graphics/SVG/1.1/DTD/svg11.dtd">
<svg version="1.1" id="Layer_1" xmlns="http://www.w3.org/2000/svg" xmlns:xlink="http://www.w3.org/1999/xlink" x="0px" y="0px"
	 width="960px" height="560px" viewBox="0 0 960 560" enable-background="new 0 0 960 560" xml:space="preserve">
<g id="Layer_2">
</g>
<g id="Front">
	<g>
		<g>
			<path fill="#A4ABE4" d="M470.458,203.548c0-2.534-2-4.668-4.534-4.668s-4.801,2.134-4.668,4.668
				c0.134,2.934,2.4,4.534,4.668,4.534C468.325,208.083,470.458,206.083,470.458,203.548z"/>
			<path fill="#A4ABE4" d="M473.125,186.745c0.934,0.133,1.867,0.267,2.801,0.267c2.935,0.399,5.868,0.667,8.801,1.066
				c2.533,0.267,5.201,0.534,7.736,0.934c2.666,0.267,5.467,0.667,8.135,1.067c3.467,0.533,6.801,1.066,10.27,1.601
				c6.668,1.2,13.336,2.533,19.471,5.601c6.135,2.935,11.203,7.202,14.537,13.203c2,3.602,3.199,7.335,3.6,11.47
				c0.268,2.001,0.4,3.867,0.135,6.001c-0.135-0.133-0.135-0.133-0.268-0.133c-3.066-4.001-6.936-6.668-11.469-8.802
				c-5.068-2.401-10.402-3.868-15.871-4.802c-3.867-0.667-7.734-1.2-11.604-1.467c-5.6-0.533-11.336-0.533-17.07-0.4
				c-2.666,0.134-5.467,0.267-8.135,0.4c-2.4,0.134-4.8,0.4-7.201,0.667c1.067-1.467,1.067-3.067,1.067-4.668
				c0-4.935,0-10.002,0-14.937c0-0.534,0-1.067-0.134-1.601c-0.4-1.334-1.601-2.4-3.334-2.4c-6.401,0.133-12.137,1.867-16.404,6.935
				c-2.134,2.534-3.334,5.602-3.734,8.802c-0.934,6.802,0.4,13.203,3.334,19.338c2.801,6.136,5.735,12.403,8.669,18.538
				c4.001,8.802,7.735,17.604,10.27,26.939c1.334,4.668,2.267,9.47,2.934,14.271c0.532,4.268,0.667,8.668,0.532,12.936
				c-0.532,10.937-3.866,20.939-10.134,29.875c-0.134,0.266-0.268,0.4-0.4,0.666c0.267,0.268,0.533,0.4,0.8,0.533
				c6.135,4.268,12.136,8.402,18.271,12.67c1.332,0.934,2.666,2.268,3.867,3.334c0.799,0.668,0.666,0.934,0.266,1.734
				c-1.332,2.533-2.666,4.934-4,7.469c-0.801,1.467-1.734,2.666-2.934,3.734c-1.201,1.066-2.668,1.467-4.268,1.467
				c-0.934,0-1.068,0-1.068,0.934c0.268,3.867-1.732,6.4-4.667,8.402c-2.267,1.6-4.534,3.066-6.668,4.668
				c-0.4,0.266-0.8,0.266-1.066,0c-0.268-0.268-0.4-0.4-0.667-0.668c-3.334-3.467-6.802-6.936-10.003-10.402
				c-12.136-12.936-22.672-26.939-31.74-42.143c-4.535-7.602-8.269-15.738-10.937-24.141c-1.066-3.2-1.601-6.534-2-9.868
				c-0.4-2.801-0.801-5.468-1.067-8.269c-0.133-1.733-0.267-3.334-0.399-5.068c0-0.399-0.134-0.8-0.134-1.2c0-0.666,0-1.333,0-2
				c0-0.267,0.134-0.533,0.134-0.8c0.133-2.268,0.133-4.535,0.399-6.802c0.4-3.602,0.801-7.068,1.601-10.67
				c2.4-11.469,6.935-22.005,13.203-31.874c3.601-5.602,7.735-10.669,12.27-15.604c4.135-4.534,8.669-8.402,14.003-11.336
				c4.935-2.801,10.137-4.534,15.871-5.068c0.934-0.133,1.733-0.267,2.667-0.267C471.659,186.745,472.326,186.745,473.125,186.745z"
				/>
			<path fill="#A4ABE4" d="M470.458,203.548c0,2.534-2,4.534-4.534,4.534c-2.268,0-4.534-1.601-4.668-4.534
				c-0.133-2.534,2.134-4.668,4.668-4.668S470.458,200.881,470.458,203.548z"/>
		</g>
	</g>
</g>
<circle fill="none" stroke="#A4ABE4" stroke-width="5" stroke-miterlimit="10" cx="480" cy="280" r="115"/>
<g>
	<path fill="#A4ABE4" d="M386.645,432.546v9.335h-23.205v9.603h20.938v8.802h-20.938v9.603h24.006v9.202h-34.408v-46.678h33.607
		V432.546z"/>
	<path fill="#A4ABE4" d="M429.188,432.546h10.402v46.678h-10.402l-22.271-29.207v29.207h-10.403v-46.678h9.736l22.938,30.007
		V432.546z"/>
	<path fill="#A4ABE4" d="M486.668,438.681c4.402,4.001,6.668,9.735,6.668,16.938c0,7.201-2.133,12.937-6.535,17.204
		c-4.268,4.268-10.935,6.401-19.87,6.401h-16.004v-46.678h16.537C475.866,432.546,482.268,434.68,486.668,438.681z M479.067,466.42
		c2.532-2.4,3.866-5.867,3.866-10.535c0-4.534-1.334-8.136-3.866-10.536c-2.534-2.4-6.535-3.734-11.736-3.734h-5.868v28.273h6.668
		C472.799,470.021,476.533,468.821,479.067,466.42z"/>
	<path fill="#A4ABE4" d="M544.148,449.883l-12.535,25.473h-6.27l-12.535-25.473v29.341h-10.402v-46.678h14.002l12.004,25.605
		l12.137-25.605h14.002v46.678h-10.402V449.883L544.148,449.883z"/>
	<path fill="#A4ABE4" d="M566.021,432.546h10.402v19.204l17.604-19.204h12.936l-18.537,20.671c1.6,2.268,4.535,6.402,8.936,12.403
		c4.268,6.001,7.469,10.536,9.602,13.604h-12.135l-13.604-18.404l-4.668,5.201v13.203h-10.402v-46.678H566.021z"/>
</g>
</svg>
