<?xml version="1.0" encoding="utf-8"?>
<!-- Generator: Adobe Illustrator 19.2.1, SVG Export Plug-In . SVG Version: 6.00 Build 0)  -->
<svg version="1.1" id="Layer_1" xmlns="http://www.w3.org/2000/svg" xmlns:xlink="http://www.w3.org/1999/xlink" x="0px" y="0px"
	 viewBox="0 0 122.7 122.7" style="enable-background:new 0 0 122.7 122.7;" xml:space="preserve">
<style type="text/css">
	.st0{fill:#916629;}
</style>
<g>
	<path class="st0" d="M61.4,122.7C27.5,122.7,0,95.2,0,61.4S27.5,0,61.4,0c33.8,0,61.4,27.5,61.4,61.4S95.2,122.7,61.4,122.7z
		 M61.4,3C29.2,3,3,29.2,3,61.4c0,32.2,26.2,58.4,58.4,58.4c32.2,0,58.4-26.2,58.4-58.4C119.7,29.2,93.6,3,61.4,3z"/>
	<path class="st0" d="M48.4,52.2h5.6v-5.4c0-2.4,0.1-6.1,1.8-8.3c1.8-2.4,4.3-4.1,8.6-4.1c7,0,10,1,10,1L73,43.7
		c0,0-2.3-0.7-4.5-0.7c-2.2,0-4.1,0.8-4.1,2.9v6.3h8.9l-0.6,8.1h-8.3v28H53.9v-28h-5.6V52.2z"/>
</g>
</svg>
