<?xml version="1.0" encoding="utf-8"?>
<!-- Generator: Adobe Illustrator 19.2.1, SVG Export Plug-In . SVG Version: 6.00 Build 0)  -->
<svg version="1.1" id="Layer_1" xmlns="http://www.w3.org/2000/svg" xmlns:xlink="http://www.w3.org/1999/xlink" x="0px" y="0px"
	 viewBox="0 0 122.7 122.7" style="enable-background:new 0 0 122.7 122.7;" xml:space="preserve">
<style type="text/css">
	.st0{fill:#916629;}
</style>
<g>
	<path class="st0" d="M61.5,123.2C27.6,123.2,0,95.6,0,61.7C0,27.8,27.6,0.2,61.5,0.2S123,27.8,123,61.7
		C123,95.6,95.4,123.2,61.5,123.2z M61.5,3.2C29.2,3.2,3,29.5,3,61.7c0,32.3,26.2,58.5,58.5,58.5c32.3,0,58.5-26.2,58.5-58.5
		C120,29.5,93.7,3.2,61.5,3.2z"/>
	<path class="st0" d="M78,34.8H44.9c-5.8,0-10.4,4.7-10.4,10.4v11v22.1c0,5.8,4.7,10.4,10.4,10.4H78c5.8,0,10.4-4.7,10.4-10.4V56.2
		v-11C88.5,39.4,83.8,34.8,78,34.8z M81,41l1.2,0v1.2v8l-9.1,0l0-9.1L81,41z M53.8,56.2c1.7-2.4,4.5-4,7.7-4c3.2,0,6,1.6,7.7,4
		c1.1,1.6,1.8,3.5,1.8,5.5c0,5.2-4.3,9.5-9.5,9.5c-5.2,0-9.5-4.3-9.5-9.5C52,59.7,52.7,57.8,53.8,56.2z M83.2,78.3
		c0,2.9-2.3,5.2-5.2,5.2H44.9c-2.9,0-5.2-2.3-5.2-5.2V56.2h8.1c-0.7,1.7-1.1,3.6-1.1,5.5c0,8.1,6.6,14.8,14.8,14.8
		c8.1,0,14.8-6.6,14.8-14.8c0-2-0.4-3.8-1.1-5.5h8.1V78.3z"/>
</g>
</svg>
