<?xml version="1.0" encoding="utf-8"?>
<!-- Generator: Adobe Illustrator 16.0.0, SVG Export Plug-In . SVG Version: 6.00 Build 0)  -->
<!DOCTYPE svg PUBLIC "-//W3C//DTD SVG 1.1//EN" "http://www.w3.org/Graphics/SVG/1.1/DTD/svg11.dtd">
<svg version="1.1" id="Layer_1" xmlns="http://www.w3.org/2000/svg" xmlns:xlink="http://www.w3.org/1999/xlink" x="0px" y="0px"
	 width="766px" height="456px" viewBox="0 0 766 456" enable-background="new 0 0 766 456" xml:space="preserve">
<g>
	<g>
		<path fill="#FFFFFF" d="M412.652-95.958c0-0.25-0.196-0.459-0.445-0.459c-0.25,0-0.472,0.21-0.459,0.459
			c0.014,0.288,0.236,0.446,0.459,0.446C412.443-95.513,412.652-95.709,412.652-95.958z"/>
		<g>
			<path fill="#906328" d="M412.916-97.611c0.091,0.013,0.183,0.026,0.275,0.026c0.289,0.04,0.577,0.065,0.866,0.105
				c0.249,0.026,0.511,0.052,0.76,0.091c0.263,0.027,0.538,0.066,0.8,0.105c0.341,0.053,0.669,0.104,1.01,0.157
				c0.656,0.118,1.312,0.249,1.915,0.551c0.604,0.289,1.102,0.708,1.43,1.298c0.197,0.354,0.314,0.722,0.354,1.128
				c0.026,0.197,0.039,0.38,0.013,0.59c-0.013-0.013-0.013-0.013-0.026-0.013c-0.302-0.394-0.682-0.656-1.128-0.866
				c-0.499-0.237-1.023-0.381-1.562-0.472c-0.38-0.066-0.76-0.118-1.141-0.145c-0.551-0.052-1.115-0.052-1.679-0.04
				c-0.262,0.014-0.538,0.026-0.8,0.04c-0.236,0.013-0.472,0.04-0.708,0.066c0.105-0.144,0.105-0.302,0.105-0.459
				c0-0.485,0-0.983,0-1.469c0-0.052,0-0.105-0.013-0.157c-0.04-0.131-0.158-0.236-0.328-0.236
				c-0.629,0.013-1.194,0.184-1.614,0.682c-0.209,0.249-0.328,0.551-0.367,0.866c-0.092,0.668,0.039,1.298,0.328,1.902
				c0.275,0.604,0.564,1.22,0.852,1.823c0.393,0.866,0.761,1.731,1.01,2.649c0.131,0.459,0.223,0.931,0.289,1.403
				c0.052,0.42,0.065,0.853,0.052,1.273c-0.052,1.075-0.38,2.059-0.997,2.938c-0.014,0.026-0.026,0.04-0.04,0.066
				c0.026,0.026,0.052,0.039,0.078,0.053c0.604,0.419,1.194,0.826,1.798,1.245c0.13,0.092,0.262,0.224,0.38,0.329
				c0.078,0.065,0.065,0.091,0.026,0.17c-0.131,0.249-0.262,0.485-0.394,0.734c-0.079,0.145-0.17,0.262-0.289,0.367
				c-0.118,0.105-0.262,0.145-0.419,0.145c-0.092,0-0.105,0-0.105,0.092c0.026,0.381-0.17,0.63-0.459,0.826
				c-0.223,0.158-0.446,0.302-0.655,0.459c-0.04,0.026-0.079,0.026-0.105,0c-0.026-0.026-0.04-0.04-0.066-0.065
				c-0.328-0.341-0.669-0.682-0.984-1.023c-1.193-1.272-2.23-2.65-3.122-4.145c-0.445-0.748-0.812-1.548-1.075-2.374
				c-0.105-0.314-0.157-0.643-0.197-0.971c-0.039-0.275-0.078-0.538-0.104-0.813c-0.013-0.17-0.026-0.328-0.04-0.498
				c0-0.04-0.013-0.079-0.013-0.118c0-0.065,0-0.131,0-0.197c0-0.026,0.013-0.052,0.013-0.079c0.013-0.223,0.013-0.446,0.04-0.669
				c0.039-0.354,0.079-0.695,0.157-1.049c0.236-1.128,0.682-2.165,1.298-3.135c0.355-0.551,0.761-1.05,1.208-1.535
				c0.407-0.446,0.853-0.827,1.377-1.115c0.486-0.275,0.997-0.446,1.561-0.498c0.092-0.013,0.17-0.026,0.262-0.026
				C412.771-97.611,412.836-97.611,412.916-97.611z"/>
			<path fill="#906328" d="M412.652-95.958c0,0.249-0.196,0.446-0.445,0.446c-0.223,0-0.446-0.158-0.459-0.446
				c-0.012-0.25,0.21-0.459,0.459-0.459C412.456-96.418,412.652-96.221,412.652-95.958z"/>
		</g>
	</g>
	<circle fill="none" stroke="#906328" stroke-width="0.9274" stroke-miterlimit="10" cx="412.913" cy="-89.17" r="11.554"/>
</g>
<g>
	<path fill="#906328" d="M395.967-50v1.624h-4.035v1.669h3.641v1.531h-3.641v1.669h4.174v1.6h-5.982v-8.116h5.844V-50z"/>
	<path fill="#906328" d="M403.364-50h1.809v8.117h-1.809l-3.872-5.079v5.079h-1.809V-50h1.693l3.988,5.218V-50z"/>
	<path fill="#906328" d="M413.359-48.933c0.765,0.696,1.159,1.693,1.159,2.945c0,1.252-0.371,2.25-1.136,2.992
		c-0.742,0.742-1.901,1.113-3.455,1.113h-2.783V-50h2.875C411.481-50,412.594-49.629,413.359-48.933z M412.038-44.109
		c0.44-0.417,0.672-1.021,0.672-1.832c0-0.789-0.232-1.415-0.672-1.832c-0.441-0.417-1.137-0.649-2.041-0.649h-1.02v4.916h1.159
		C410.948-43.483,411.597-43.692,412.038-44.109z"/>
	<path fill="#906328" d="M423.354-46.985l-2.18,4.429h-1.09l-2.18-4.429v5.102h-1.809V-50h2.435l2.087,4.453l2.11-4.453h2.435v8.117
		h-1.809V-46.985L423.354-46.985z"/>
	<path fill="#906328" d="M427.157-50h1.809v3.339L432.027-50h2.249l-3.223,3.595c0.278,0.394,0.789,1.113,1.554,2.157
		c0.742,1.043,1.298,1.832,1.669,2.365h-2.11l-2.366-3.2l-0.812,0.904v2.296h-1.809V-50H427.157z"/>
</g>
<g>
	<g>
		<g>
			<path fill-rule="evenodd" clip-rule="evenodd" fill="#8F6429" d="M444.42,66.492c3.048,0,5.952,0,9.282,0
				c0.129,1.462,0.377,2.88,0.377,4.306c-0.01,21.082,0.11,42.173-0.168,63.245c-0.105,8.128,2.675,14.945,7.455,21.145
				c3.854,5.006,8.854,8.586,14.915,10.406c8.133,2.431,16.521,2.468,25.72,2.422c0.596-33.936,0.193-67.587,0.609-101.622
				c3.486,0,6.389,0,9.845,0c0.198,1.273,0.616,2.655,0.603,4.037c-0.127,11.008-0.43,22.015-0.494,33.023
				c-0.11,18.282-0.09,36.574-0.119,54.856c-0.005,3.525,0,7.06,0,11.195c-2.229,0.188-4.016,0.459-5.796,0.467
				c-8.397,0.054-16.809,0.324-25.188-0.062c-5.736-0.261-11.679-0.709-17.093-2.432c-11.137-3.543-18.553-11.239-20.067-23.145
				c-0.988-7.732-1.002-15.628-0.983-23.441c0.05-16.946,0.395-33.892,0.646-50.838C443.977,68.967,444.231,67.883,444.42,66.492z"
				/>
			<path fill-rule="evenodd" clip-rule="evenodd" fill="#8F6429" d="M419.979,71.005c-10.33,9.913-20.664,19.826-31.417,30.142
				c-10.196-9.885-20.301-19.682-31.097-30.151c-1.849,6.028-0.126,11.357-0.436,16.569c-0.332,5.58-0.246,11.195-0.256,16.793
				c0,5.409,0.05,10.828,0.202,16.237c0.157,5.409,0.391,10.819,0.731,16.22c0.358,5.589,0.879,11.169,1.354,16.749
				c0.462,5.374,0.96,10.737,1.479,16.551c-2.69,0-5.148,0-7.786,0c0.78-34.412,1.561-68.655,2.359-103.533
				c4.216-0.09,8.101-0.431,11.931-0.126c1.408,0.117,2.836,1.597,4.002,2.719c6.48,6.19,12.873,12.479,19.314,18.704
				c1.184,1.149,2.458,2.189,4.038,3.589c4.925-4.602,9.661-9.034,14.397-13.466c2.588-2.422,5.553-4.566,7.662-7.356
				c4.1-5.436,9.384-5.023,15.029-4.153c0,34.476,0,68.735,0,103.462c-3.816,0-7.018,0-10.468,0c0-32.896,0-65.641,0-98.384
				C420.674,71.382,420.324,71.193,419.979,71.005z"/>
			<path fill-rule="evenodd" clip-rule="evenodd" fill="#8F6429" d="M695.258,70.484c3.13-1.31,5.821-2.441,9.248-3.876
				c13.542,34.296,26.163,68.601,39.287,103.139c-1.314,0.188-2.004,0.387-2.691,0.368c-2.775-0.09-5.547-0.241-8.677-0.395
				c-1.318-3.606-2.58-7.078-3.861-10.551c-3.945-10.665-7.989-21.287-11.783-32.008c-1.064-2.987-2.676-4.001-5.787-3.821
				c-4.599,0.269-9.223,0.062-14.112,0.062c-4.298,15.602-8.45,30.653-12.757,46.272c-2.547,0-5.562,0-9.285,0
				c0.984-2.512,1.777-4.54,2.567-6.566c7.112-18.221,14.308-36.404,21.292-54.678c1.965-5.141,4.723-10.559,4.553-15.771
				c-0.18-5.294-3.507-10.488-5.472-15.727C697.06,75.032,696.299,73.14,695.258,70.484z M697.446,120.426
				c5.885,0,10.881,0,16.658,0c-2.918-7.446-5.516-14.076-8.116-20.705c-0.419,0-0.837-0.009-1.258-0.019
				C701.483,106.036,700.595,113.248,697.446,120.426z"/>
			<path fill-rule="evenodd" clip-rule="evenodd" fill="#8F6429" d="M657.148,67.685c0.127,1.301,0.278,2.215,0.297,3.141
				c0.036,2.036,0.009,4.081,0.009,7.355c-2.063-1.659-3.41-2.753-4.76-3.83c-6.328-5.042-13.365-8.325-21.615-7.805
				c-2.898,0.188-6.01,0.835-8.54,2.181c-6.942,3.695-8.11,11.779-2.473,17.43c3.137,3.14,6.888,5.714,10.537,8.298
				c8.675,6.145,17.865,11.609,25.356,19.314c4.902,5.052,8.657,10.802,10.241,17.71c3.718,16.264-6.899,32.717-23.898,36.923
				c-10.928,2.701-21.866,2.001-32.714-0.672c-3.242-0.799-6.418-1.857-9.741-2.826c0-4.629,0-8.943,0-13.608
				c3.925,3.391,7.182,6.674,10.896,9.329c8.765,6.289,18.426,8.531,29.182,6.083c19.042-4.333,24.5-26.725,12.784-40.299
				c-6.684-7.741-15.156-13.231-23.406-19.018c-4.279-3.005-8.701-5.849-12.692-9.204c-7.813-6.576-9.569-15.475-4.886-23.531
				c2.884-4.96,7.36-7.769,12.896-9.096c8.562-2.045,17.057-1.185,25.539,0.466C652.502,66.474,654.802,67.12,657.148,67.685z"/>
			<path fill-rule="evenodd" clip-rule="evenodd" fill="#8F6429" d="M520.956,75.113c0-2.835,0-5.149,0-8.02
				c26.782,0,53.332,0,79.958,0c0,2.691,0,4.96,0,7.177c-11.532-2.208-22.62-4.324-34.681-6.621c0,34.619,0,68.296,0,102.466
				c-3.872,0-6.932,0-10.519,0c-0.216-1.266-0.655-2.655-0.646-4.037c0.175-22.776,0.42-45.545,0.618-68.313
				c0.075-8.586,0.075-17.18,0.071-25.765c0-1.077-0.246-2.152-0.416-3.535C543.478,68.681,532.444,71.893,520.956,75.113z"/>
		</g>
		<g>
			<path fill-rule="evenodd" clip-rule="evenodd" fill="#8F6429" d="M45.483,170.115c-3.696,0-6.603,0-10.021,0
				c-0.363-34.027-0.722-67.739-1.09-102.277c3.4-0.188,6.737-0.377,10.774-0.61c0,15.923,0,31.479,0,47.294
				c4.93-2.072,19.602-18.417,42.105-46.46c4.875,0,9.8,0,16.036,0C91.154,78.154,79.958,87.466,68.251,97.209
				c1.633,1.032,2.575,1.803,3.651,2.278c14.627,6.522,23.01,17.941,26.142,33.407c1.884,9.312,3.472,18.688,5.266,28.017
				c0.556,2.897,1.354,5.742,2.148,9.053c-3.019,0-5.791-0.082-8.554,0.026c-2.808,0.099-4.117-1.391-4.467-3.931
				c-0.79-5.722-1.628-11.446-2.225-17.196c-0.852-8.164-1.256-16.372-2.305-24.509c-1.525-11.742-9.205-18.731-19.288-23.62
				c-1.888-0.915-3.589-0.592-5.104,0.924c-5.41,5.409-10.806,10.828-16.296,16.147c-1.879,1.821-1.668,4.028-1.673,6.244
				c-0.027,13.07-0.04,26.142-0.059,39.212C45.483,165.289,45.483,167.317,45.483,170.115z"/>
			<path fill-rule="evenodd" clip-rule="evenodd" fill="#8F6429" d="M195.338,170.115c-3.839,0-6.925,0-10.464,0
				c-2.386-10.479-4.772-20.974-7.249-31.874c-14.627,0-29.093,0-44.083,0c-2.454,10.362-3.436,20.867-4.351,31.812
				c-3.319,0-6.495,0-9.958,0c7.719-33.362,15.344-66.34,23.163-100.16c-7.244-0.028-13.089,2.619-19.736,5.391
				c-0.162-2.674-0.296-4.925-0.467-7.652c22.104,0,43.671,0,65.452,0c0.197,1.399,0.399,2.467,0.489,3.534
				c0.076,0.897,0.013,1.803,0.013,3.445c-5.481-1.793-10.479-3.436-15.403-5.05c-1.826,2.413-0.722,4.449-0.278,6.27
				c7.114,29.173,14.326,58.311,21.499,87.467C194.446,165.263,194.769,167.254,195.338,170.115z M160.167,69.775
				c-5.481,0-10.639,0-16.614,0c-3.364,21.71-6.71,43.339-10.065,64.967c10.429,1.598,38.692,1.329,42.765-0.269
				C170.951,113.142,165.649,91.826,160.167,69.775z"/>
			<path fill-rule="evenodd" clip-rule="evenodd" fill="#8F6429" d="M264.616,161.091c0,3.427,0,6.118,0,9.024
				c-18.462,0-36.503,0-55.216,0c-0.941-34.054-0.888-67.767-0.798-102.242c3.184-0.242,6.163-0.466,9.688-0.726
				c0.431,33.865,0.853,67.013,1.283,100.905C234.783,166.903,249.438,165.092,264.616,161.091z"/>
			<path fill-rule="evenodd" clip-rule="evenodd" fill="#8F6429" d="M278.145,67.246c3.382,0,6.477,0,9.976,0
				c0,34.152,0,67.99,0,102.367c-3.4,0.179-6.481,0.341-9.464,0.502C277.135,165.701,276.736,77.661,278.145,67.246z"/>
		</g>
	</g>
</g>
<g>
	<path fill-rule="evenodd" clip-rule="evenodd" fill="#8F6429" d="M581.09,222.754c0,13.821,0,27.425,0,41.252
		c-1.507,0-2.734,0-4.108,0c0-13.986,0-27.881,0-42.016c3.655-0.116,7.145-0.204,10.637,0.168c3.149,0.333,6.168,1.102,9.002,2.563
		c5.609,2.892,9.117,8.995,8.152,14.708c-0.96,5.675-4.21,9.757-9.395,12.24c-1.418,0.679-2.94,1.142-4.651,1.792
		c0.559,0.454,0.98,0.74,1.334,1.094c1.021,1.023,2.188,1.959,2.983,3.14c1.481,2.197,2.598,4.656,5.006,6.25
		c-2.345,0.382-4.592,0.375-6.823,0.164c-0.438-0.042-1.018-0.698-1.177-1.186c-0.543-1.665-1.02-3.364-1.352-5.082
		c-0.611-3.163-1.721-4.184-4.929-4.246c-0.901-0.018-1.804-0.003-2.884-0.003c0.559-1.159,1.438-0.787,2.104-0.839
		c3.586-0.284,6.907-1.218,9.754-3.55c4.628-3.787,6.104-8.77,4.963-14.398c-1.057-5.218-4.278-8.861-9.425-10.668
		C587.444,223.141,584.559,222.604,581.09,222.754z"/>
	<path fill-rule="evenodd" clip-rule="evenodd" fill="#8F6429" d="M206.148,223.789c-4.235,4.062-8.471,8.127-12.88,12.356
		c-4.179-4.051-8.322-8.069-12.75-12.361c-0.758,2.474-0.051,4.657-0.178,6.793c-0.136,2.288-0.103,4.589-0.104,6.884
		c-0.001,2.221,0.019,4.44,0.082,6.66c0.063,2.216,0.158,4.434,0.3,6.647c0.147,2.292,0.359,4.577,0.556,6.863
		c0.188,2.203,0.393,4.406,0.605,6.786c-1.103,0-2.109,0-3.191,0c0.32-14.106,0.641-28.143,0.967-42.441
		c1.729-0.038,3.321-0.177,4.893-0.052c0.575,0.046,1.161,0.653,1.641,1.112c2.655,2.539,5.276,5.115,7.918,7.67
		c0.483,0.469,1.007,0.896,1.654,1.47c2.018-1.886,3.961-3.701,5.902-5.52c1.061-0.994,2.277-1.871,3.141-3.016
		c1.681-2.229,3.846-2.059,6.163-1.703c0,14.133,0,28.179,0,42.415c-1.565,0-2.88,0-4.293,0c0-13.487,0-26.91,0-40.333
		C206.432,223.943,206.29,223.867,206.148,223.789z"/>
	<path fill-rule="evenodd" clip-rule="evenodd" fill="#8F6429" d="M498.004,264.163c-0.213-14.244-0.419-28.132-0.627-42.182
		c8.416,0,16.645,0,25.033,0c0,1.142,0,2.239,0,3.646c-3.443-0.607-6.775-1.272-10.132-1.764c-3.32-0.483-6.665-0.792-9.943-1.171
		c-0.652,1.783-0.742,4.162-0.285,7.279c7.638-0.142,15.31-0.377,23.153-1.267c0,1.013,0,1.938,0,3.016
		c-7.742-0.64-15.408-0.77-23.292-0.755c-0.271,10.907,0.36,21.573,0.337,32.514c8.041-0.43,15.807-1.273,23.562-2.895
		c0.096,0.41,0.211,0.691,0.22,0.979c0.025,0.824,0.011,1.653,0.011,2.599C516.663,264.163,507.438,264.163,498.004,264.163z"/>
	<path fill-rule="evenodd" clip-rule="evenodd" fill="#8F6429" d="M362.958,222.754c0.053,0.537,0.113,0.911,0.121,1.289
		c0.016,0.837,0.006,1.675,0.006,3.016c-0.849-0.682-1.398-1.128-1.953-1.57c-2.595-2.067-5.479-3.411-8.862-3.197
		c-1.188,0.073-2.463,0.341-3.5,0.892c-2.846,1.514-3.325,4.83-1.013,7.146c1.286,1.289,2.822,2.345,4.317,3.403
		c3.558,2.519,7.325,4.758,10.396,7.918c2.012,2.07,3.55,4.429,4.198,7.26c1.525,6.667-2.828,13.411-9.798,15.137
		c-4.478,1.108-8.963,0.821-13.409-0.274c-1.329-0.327-2.633-0.761-3.995-1.159c0-1.896,0-3.666,0-5.58
		c1.607,1.392,2.946,2.736,4.466,3.826c3.595,2.576,7.555,3.495,11.965,2.491c7.805-1.775,10.043-10.953,5.24-16.52
		c-2.738-3.174-6.213-5.423-9.596-7.797c-1.752-1.231-3.566-2.397-5.203-3.773c-3.203-2.696-3.923-6.345-2.003-9.647
		c1.182-2.031,3.019-3.183,5.287-3.726c3.512-0.841,6.993-0.486,10.469,0.188C361.053,222.26,361.996,222.524,362.958,222.754z"/>
	<path fill-rule="evenodd" clip-rule="evenodd" fill="#8F6429" d="M260.267,264.163c-0.213-14.244-0.419-28.132-0.627-42.182
		c8.416,0,16.645,0,25.033,0c0,1.142,0,2.239,0,3.646c-3.443-0.607-6.775-1.272-10.132-1.764c-3.32-0.483-6.665-0.792-9.943-1.171
		c-0.652,1.783-0.742,4.162-0.285,7.279c7.638-0.142,15.31-0.377,23.153-1.267c0,1.013,0,1.938,0,3.016
		c-7.742-0.64-15.408-0.77-23.292-0.755c-0.271,10.907,0.36,21.573,0.337,32.514c8.041-0.43,15.807-1.273,23.562-2.895
		c0.096,0.41,0.211,0.691,0.22,0.979c0.025,0.824,0.011,1.653,0.011,2.599C278.926,264.163,269.701,264.163,260.267,264.163z"/>
	<path fill-rule="evenodd" clip-rule="evenodd" fill="#8F6429" d="M443.886,223.789c-4.235,4.062-8.471,8.127-12.88,12.356
		c-4.179-4.051-8.322-8.069-12.75-12.361c-0.758,2.474-0.051,4.657-0.178,6.793c-0.136,2.288-0.103,4.589-0.104,6.884
		c-0.001,2.221,0.019,4.44,0.082,6.66c0.063,2.216,0.158,4.434,0.3,6.647c0.147,2.292,0.359,4.577,0.556,6.863
		c0.188,2.203,0.393,4.406,0.605,6.786c-1.103,0-2.109,0-3.191,0c0.32-14.106,0.641-28.143,0.967-42.441
		c1.729-0.038,3.321-0.177,4.893-0.052c0.575,0.046,1.161,0.653,1.641,1.112c2.655,2.539,5.276,5.115,7.918,7.67
		c0.483,0.469,1.007,0.896,1.654,1.47c2.018-1.886,3.961-3.701,5.902-5.52c1.061-0.994,2.277-1.871,3.141-3.016
		c1.681-2.229,3.846-2.059,6.163-1.703c0,14.133,0,28.179,0,42.415c-1.565,0-2.88,0-4.293,0c0-13.487,0-26.91,0-40.333
		C444.169,223.943,444.027,223.867,443.886,223.789z"/>
	<path fill-rule="evenodd" clip-rule="evenodd" fill="#8F6429" d="M138.684,243.087c1.749,0.177,3.127,1.935,2.92,3.729
		c-0.241,2.088-2.259,3.782-4.279,3.595c-1.737-0.162-2.958-1.726-2.764-3.539C134.797,244.686,136.75,242.893,138.684,243.087z"/>
	<path fill-rule="evenodd" clip-rule="evenodd" fill="#8F6429" d="M640.685,243.087c1.748,0.177,3.127,1.935,2.92,3.729
		c-0.242,2.088-2.26,3.782-4.279,3.595c-1.738-0.162-2.959-1.726-2.764-3.539C636.798,244.686,638.751,242.893,640.685,243.087z"/>
</g>
<g>
	<g>
		<path fill-rule="evenodd" clip-rule="evenodd" fill="#8F6429" d="M413.319,395.125c-0.137-9.24-0.271-18.249-0.406-27.363
			c5.459,0,10.797,0,16.238,0c0,0.741,0,1.453,0,2.365c-2.232-0.395-4.395-0.825-6.572-1.146c-2.154-0.312-4.322-0.513-6.451-0.759
			c-0.422,1.157-0.48,2.699-0.184,4.724c4.955-0.093,9.932-0.245,15.02-0.823c0,0.658,0,1.258,0,1.956
			c-5.023-0.414-9.996-0.498-15.109-0.489c-0.176,7.076,0.232,13.994,0.219,21.091c5.217-0.278,10.254-0.825,15.283-1.877
			c0.062,0.266,0.137,0.448,0.145,0.636c0.016,0.534,0.006,1.07,0.006,1.686C425.423,395.125,419.438,395.125,413.319,395.125z"/>
		<path fill-rule="evenodd" clip-rule="evenodd" fill="#8F6429" d="M437.856,367.809c2.566,0,4.869-0.219,7.113,0.048
			c4.088,0.486,7.328,2.533,9.676,5.978c1.922,2.812,1.502,7.04-0.943,9.788c-2.588,2.909-5.867,4.309-9.689,4.558
			c-0.639,0.042-1.281,0.005-2.014,0.005c0.414-0.601,1.004-0.379,1.471-0.402c1.566-0.08,3.045-0.47,4.396-1.232
			c3.666-2.064,5.654-6.135,4.795-10.643c-0.621-3.274-2.467-5.562-5.58-6.803c-2.039-0.812-4.127-1.299-6.508-1.053
			c0,9.037,0,17.995,0,27.11c-1.012,0-1.863,0-2.717,0C437.856,386.061,437.856,376.973,437.856,367.809z"/>
		<path fill-rule="evenodd" clip-rule="evenodd" fill="#8F6429" d="M486.987,380.978c-0.023,3.676-0.9,6.898-2.49,9.929
			c-0.65,1.239-1.543,2.298-2.682,3.142c-1.744,1.291-3.641,1.276-5.311-0.101c-1.941-1.601-3.098-3.731-3.852-6.074
			c-1.822-5.664-1.426-11.149,1.611-16.33c0.535-0.918,1.289-1.758,2.094-2.459c2.045-1.783,4.668-1.539,6.469,0.498
			C485.769,372.905,486.907,376.868,486.987,380.978z M474.513,381.5c0.084,1.647,0.131,3.187,0.248,4.72
			c0.174,2.298,0.736,4.494,1.865,6.528c1.463,2.636,4.266,2.058,5.322,0.016c0.631-1.219,1.252-2.517,1.498-3.85
			c1-5.377,0.977-10.758-0.418-16.081c-0.338-1.295-0.785-2.552-1.73-3.583c-1.055-1.153-2.453-1.284-3.686-0.321
			c-1.074,0.843-1.605,1.989-1.967,3.248C474.757,375.259,474.663,378.437,474.513,381.5z"/>
		<path fill-rule="evenodd" clip-rule="evenodd" fill="#8F6429" d="M496.503,392.258c3.887,0,7.395,0,11.092,0
			c0.045,0.848,0.086,1.6,0.125,2.309c-1.189,0.393-12.928,0.432-14.355,0.031c0.672-0.756,1.273-1.444,1.887-2.12
			c2.471-2.718,4.936-5.442,6.865-8.591c1.656-2.703,2.801-5.568,2.799-8.812c0-1.466-0.252-2.853-0.859-4.183
			c-0.746-1.631-2.244-2.614-3.85-2.513c-1.398,0.089-2.91,1.408-3.381,2.972c-0.139,0.467-0.225,0.948-0.336,1.425
			c-0.826,0-1.559,0-2.35,0c-0.123-1.239,0.588-2.061,1.334-2.715c2.207-1.938,4.777-2.629,7.588-1.537
			c2.877,1.115,4.574,3.19,4.732,6.393c0.107,2.129-0.533,4.056-1.705,5.749c-1.434,2.072-3.014,4.051-4.619,5.996
			c-1.264,1.527-2.666,2.942-4,4.41C497.214,391.353,496.987,391.663,496.503,392.258z"/>
		<path fill-rule="evenodd" clip-rule="evenodd" fill="#8F6429" d="M520.646,368.256c0.873,0,1.557,0,2.219,0
			c0.346,1.092,0.387,24.848,0.043,26.375c-0.688,0-1.406,0-2.262,0C520.646,385.887,520.646,377.145,520.646,368.256z"/>
	</g>
	<g>
		<path fill-rule="evenodd" clip-rule="evenodd" fill="#8F6429" d="M302.153,365.981c0,1.602,0.001,3.011,0,4.421
			c-0.008,7.714-0.013,15.431-0.035,23.145c-0.002,0.533,0.308,1.303-0.435,1.505c-0.815,0.221-1.001-0.642-1.291-1.141
			c-3.094-5.359-6.144-10.744-9.238-16.104c-1.6-2.771-3.263-5.505-4.904-8.252c-0.101-0.17-0.259-0.305-0.619-0.719
			c0,8.856,0,17.413,0,26.101c-1.037,0-1.896,0-2.985,0c-0.115-9.563-0.107-19.134,0.111-28.694
			c0.279-0.114,0.469-0.255,0.663-0.259c0.942-0.025,1.885-0.012,2.936-0.012c3.972,8.035,8.068,16.037,12.584,23.876
			c0.333-3.968,0.179-7.91,0.193-11.851c0.012-3.976,0.002-7.951,0.002-12.017C300.215,365.981,301.079,365.981,302.153,365.981z"/>
		<path fill-rule="evenodd" clip-rule="evenodd" fill="#8F6429" d="M355.266,367.307c-2.905,2.785-5.808,5.572-8.832,8.472
			c-2.864-2.777-5.706-5.532-8.741-8.475c-0.519,1.695-0.035,3.192-0.122,4.657c-0.092,1.568-0.07,3.146-0.071,4.719
			c0,1.523,0.013,3.045,0.056,4.566c0.044,1.52,0.108,3.04,0.207,4.558c0.1,1.571,0.246,3.138,0.38,4.706
			c0.128,1.51,0.27,3.021,0.416,4.652c-0.756,0-1.447,0-2.189,0c0.22-9.672,0.439-19.295,0.664-29.098
			c1.186-0.026,2.277-0.121,3.354-0.036c0.395,0.032,0.796,0.448,1.125,0.763c1.821,1.741,3.618,3.507,5.428,5.259
			c0.333,0.321,0.69,0.614,1.134,1.007c1.383-1.292,2.716-2.536,4.046-3.783c0.727-0.682,1.562-1.283,2.154-2.067
			c1.152-1.528,2.636-1.412,4.225-1.168c0,9.689,0,19.319,0,29.08c-1.073,0-1.975,0-2.943,0c0-9.247,0-18.45,0-27.653
			C355.46,367.413,355.362,367.361,355.266,367.307z"/>
		<path fill-rule="evenodd" clip-rule="evenodd" fill="#8F6429" d="M310.323,366.036c4.543-0.242,8.938-0.228,12.73,2.593
			c4.159,3.094,6.667,7.225,6.545,12.456c-0.121,5.26-2.716,9.245-7.383,11.817c-3.583,1.973-7.462,2.265-11.401,2.206
			C310.422,394.001,310.005,369.021,310.323,366.036z M313.375,394.478c5.425,0.385,9.439-2.408,11.233-6.433
			c1.943-4.359,2.368-8.912,0.593-13.453c-1.825-4.671-5.135-7.567-10.29-8.021c-0.596-0.052-1.201-0.008-1.917-0.008
			C313.123,375.958,313.248,385.166,313.375,394.478z"/>
		<path fill-rule="evenodd" clip-rule="evenodd" fill="#8F6429" d="M368.098,394.987c-1.04,0-1.856,0-2.818,0
			c-0.101-9.563-0.202-19.039-0.305-28.746c0.955-0.055,1.894-0.108,3.028-0.172c0,4.476,0,8.848,0,13.293
			c1.384-0.582,5.51-5.177,11.836-13.06c1.37,0,2.753,0,4.505,0c-3.409,2.837-6.557,5.454-9.847,8.192
			c0.458,0.291,0.725,0.507,1.025,0.642c4.111,1.832,6.469,5.042,7.348,9.388c0.529,2.618,0.977,5.253,1.48,7.877
			c0.156,0.812,0.38,1.612,0.604,2.544c-0.851,0-1.628-0.022-2.405,0.007c-0.788,0.028-1.157-0.391-1.256-1.104
			c-0.221-1.609-0.457-3.218-0.625-4.834c-0.24-2.294-0.353-4.604-0.65-6.888c-0.425-3.301-2.585-5.267-5.419-6.639
			c-0.53-0.258-1.008-0.166-1.435,0.258c-1.52,1.521-3.037,3.045-4.58,4.539c-0.528,0.514-0.47,1.132-0.47,1.756
			c-0.008,3.673-0.013,7.348-0.017,11.021C368.098,393.628,368.098,394.2,368.098,394.987z"/>
		<path fill-rule="evenodd" clip-rule="evenodd" fill="#8F6429" d="M255.45,394.987c-0.146-9.766-0.287-19.286-0.43-28.919
			c5.77,0,11.411,0,17.162,0c0,0.783,0,1.535,0,2.5c-2.36-0.417-4.645-0.873-6.945-1.21c-2.276-0.332-4.57-0.543-6.818-0.803
			c-0.447,1.223-0.508,2.854-0.195,4.991c5.236-0.097,10.496-0.259,15.874-0.869c0,0.694,0,1.329,0,2.067
			c-5.308-0.438-10.563-0.527-15.968-0.517c-0.186,7.478,0.247,14.79,0.231,22.291c5.512-0.295,10.836-0.873,16.153-1.984
			c0.066,0.28,0.146,0.474,0.152,0.671c0.018,0.565,0.007,1.134,0.007,1.781C268.243,394.987,261.918,394.987,255.45,394.987z"/>
	</g>
	<g>
		<g>
			<path fill-rule="evenodd" clip-rule="evenodd" fill="#8F6429" d="M400.311,360.237c0.437-5.846,3.271-11.328,6.247-16.851
				c-3.048-0.145-14.635-0.145-17.688,0c2.973,5.522,5.812,11.005,6.248,16.851l4.918,44.998L400.311,360.237z"/>
		</g>
	</g>
</g>
</svg>
